<svg width="228" height="188" viewBox="0 0 228 188" fill="none" xmlns="http://www.w3.org/2000/svg">
<path d="M210.012 18.9365C198.412 7.33727 182.99 0.94873 166.584 0.94873C150.196 0.94873 134.786 7.32387 123.186 18.9013C122.562 19.5128 122.099 20.2891 121.865 21.1666C121.461 22.6805 121.801 24.2514 122.704 25.4437L133.081 39.9262L115.596 62.5276C113.948 64.6579 114.3 67.714 116.389 69.4145L136.556 85.8298L119.408 108.3C118.065 110.059 118.049 112.494 119.369 114.271L134.135 134.148L115.21 145.838C113.919 146.635 113.064 147.979 112.888 149.486C112.712 150.993 113.235 152.498 114.308 153.57L134.76 174.023C135.693 174.956 136.959 175.476 138.271 175.476C138.374 175.476 138.477 175.473 138.581 175.466C139.788 175.391 140.926 174.877 141.781 174.023L210.011 105.793C221.61 94.1938 227.998 78.7707 227.998 62.3653C228 45.9589 221.611 30.5357 210.012 18.9365ZM202.993 98.7731L138.271 163.494L125.764 150.987L143.953 139.752C145.136 139.022 145.958 137.829 146.219 136.464C146.481 135.099 146.158 133.686 145.329 132.57L129.567 111.352L147.366 88.0286C148.993 85.8978 148.633 82.8601 146.553 81.1681L126.411 64.7731L143.194 43.078C144.536 41.3433 144.58 38.933 143.303 37.1501L133.248 23.1158C142.548 15.1945 154.235 10.8768 166.583 10.8768C180.337 10.8768 193.268 16.2324 202.992 25.9569C212.717 35.6814 218.072 48.6114 218.072 62.3653C218.073 76.1187 212.717 89.0486 202.993 98.7731Z" fill="black"/>
<path d="M199.574 29.3747C194.984 24.7855 189.631 21.2698 183.664 18.9256C181.114 17.9234 178.232 19.1787 177.229 21.7304C176.226 24.2817 177.483 27.163 180.034 28.1651C184.723 30.0076 188.936 32.7762 192.554 36.3946C199.49 43.3312 203.31 52.5544 203.31 62.3647C203.31 72.1756 199.49 81.3983 192.554 88.3348C190.616 90.2731 190.616 93.416 192.554 95.3542C193.524 96.3236 194.794 96.8081 196.064 96.8081C197.334 96.8081 198.604 96.3236 199.574 95.3542C208.384 86.543 213.237 74.8276 213.237 62.3647C213.237 49.9024 208.385 38.1865 199.574 29.3747Z" fill="black"/>
<path d="M166.584 15.7114C162.743 15.7114 158.927 16.177 155.24 17.0943C152.58 17.7564 150.96 20.4496 151.622 23.1095C152.184 25.3669 154.209 26.8754 156.435 26.8754C156.832 26.8754 157.235 26.8272 157.638 26.727C160.541 26.0043 163.551 25.638 166.584 25.638C169.325 25.638 171.547 23.4158 171.547 20.6744C171.547 17.9331 169.325 15.7114 166.584 15.7114Z" fill="black"/>
<path d="M100.44 150.987L118.629 139.752C119.812 139.022 120.634 137.829 120.895 136.464C121.157 135.098 120.834 133.686 120.005 132.57L104.243 111.352L122.042 88.0286C123.669 85.8973 123.309 82.8601 121.23 81.1676L101.087 64.7726L117.871 43.0775C119.213 41.3428 119.257 38.9325 117.979 37.1496L108.891 24.4659C104.466 18.2893 99.0469 13.2697 92.7845 9.54554C68.636 -4.81639 37.8781 -0.954283 17.9873 18.9365C6.38804 30.5357 0 45.9589 0 62.3643C0 78.7697 6.38804 94.1928 17.9878 105.793L97.8289 185.629C98.7982 186.598 100.068 187.083 101.339 187.083C102.609 187.083 103.879 186.599 104.848 185.629L116.375 174.103C116.815 173.682 117.183 173.176 117.449 172.601C118.326 170.711 117.929 168.476 116.456 167.003L100.44 150.987ZM101.338 175.1L25.0067 98.7731C15.2827 89.0486 9.92703 76.1187 9.92703 62.3643C9.92703 48.6104 15.2827 35.6804 25.0072 25.9559C34.9506 16.0125 48.1292 10.8465 61.4433 10.8465C70.4591 10.8465 79.5383 13.217 87.7113 18.0773C92.7884 21.0966 97.1995 25.1915 100.822 30.2474L107.758 39.9267L90.2729 62.5281C88.625 64.6584 88.9769 67.7144 91.0656 69.4149L111.233 85.8303L94.0844 108.3C92.7418 110.059 92.7264 112.495 94.0457 114.271L108.812 134.149L89.8863 145.838C88.5952 146.635 87.74 147.979 87.5643 149.486C87.3886 150.993 87.9118 152.498 88.9844 153.57L105.926 170.512L101.338 175.1Z" fill="black"/>
<path d="M91.5079 42.5938C92.4773 43.9463 94.0006 44.6665 95.5467 44.6665C96.5479 44.6665 97.5579 44.3648 98.4335 43.7374C100.662 42.1406 101.174 39.0399 99.5771 36.8118L96.8918 33.0643C93.6601 28.554 89.7399 24.9103 85.2395 22.2339C81.0687 19.7537 76.5424 17.9489 71.7864 16.8704C69.113 16.2648 66.4546 17.9395 65.848 20.6134C65.242 23.2867 66.9177 25.9452 69.591 26.5517C73.3315 27.4 76.8889 28.8176 80.1648 30.7662C83.4804 32.7382 86.393 35.4567 88.8222 38.8463L91.5079 42.5938Z" fill="black"/>
<path d="M55.6672 16.0592C51.4934 16.57 47.4174 17.6401 43.5538 19.2404C41.0209 20.2891 39.8182 23.1928 40.867 25.7252C41.6587 27.6371 43.5066 28.7907 45.4548 28.7907C46.0876 28.7907 46.7309 28.6685 47.3518 28.4114C50.3865 27.1547 53.5895 26.3139 56.8724 25.9123C59.5934 25.5793 61.5291 23.104 61.1961 20.383C60.864 17.6625 58.3912 15.7262 55.6672 16.0592Z" fill="black"/>
</svg>
