<svg width="128" height="25" viewBox="0 0 128 25" fill="none" xmlns="http://www.w3.org/2000/svg">
<path d="M5.56973 19L0.643593 1.54545H4.04416L7.18905 14.3722H7.35098L10.7089 1.54545H13.8027L17.1692 14.3807H17.3226L20.4675 1.54545H23.868L18.9419 19H15.8226L12.3283 6.75284H12.1919L8.68905 19H5.56973ZM30.1436 19.2557C28.8312 19.2557 27.6976 18.983 26.7431 18.4375C25.7942 17.8864 25.0641 17.108 24.5527 16.1023C24.0414 15.0909 23.7857 13.9006 23.7857 12.5312C23.7857 11.1847 24.0414 10.0028 24.5527 8.9858C25.0698 7.96307 25.7914 7.16761 26.7175 6.59943C27.6436 6.02557 28.7317 5.73864 29.9817 5.73864C30.7885 5.73864 31.5499 5.86932 32.2658 6.13068C32.9874 6.38636 33.6238 6.78409 34.1749 7.32386C34.7317 7.86364 35.1692 8.55114 35.4874 9.38636C35.8056 10.2159 35.9647 11.2045 35.9647 12.3523V13.2983H25.2346V11.2188H33.0073C33.0016 10.6278 32.8738 10.1023 32.6238 9.64205C32.3738 9.17614 32.0243 8.80966 31.5755 8.54261C31.1323 8.27557 30.6152 8.14205 30.0243 8.14205C29.3937 8.14205 28.8397 8.29545 28.3624 8.60227C27.8851 8.90341 27.513 9.30114 27.2459 9.79545C26.9846 10.2841 26.851 10.821 26.8454 11.4062V13.2216C26.8454 13.983 26.9846 14.6364 27.263 15.1818C27.5414 15.7216 27.9306 16.1364 28.4306 16.4261C28.9306 16.7102 29.5158 16.8523 30.1863 16.8523C30.6351 16.8523 31.0414 16.7898 31.405 16.6648C31.7687 16.5341 32.084 16.3438 32.351 16.0938C32.6181 15.8438 32.8198 15.5341 32.9562 15.1648L35.8368 15.4886C35.655 16.25 35.3084 16.9148 34.7971 17.483C34.2914 18.0455 33.6437 18.483 32.8539 18.7955C32.0641 19.1023 31.1607 19.2557 30.1436 19.2557ZM43.1927 19.2301C42.1643 19.2301 41.2438 18.9659 40.4313 18.4375C39.6188 17.9091 38.9768 17.142 38.5052 16.1364C38.0336 15.1307 37.7978 13.9091 37.7978 12.4716C37.7978 11.017 38.0365 9.78977 38.5137 8.78977C38.9967 7.78409 39.6473 7.02557 40.4654 6.5142C41.2836 5.99716 42.1956 5.73864 43.2012 5.73864C43.9683 5.73864 44.599 5.86932 45.0933 6.13068C45.5876 6.38636 45.9796 6.69602 46.2694 7.05966C46.5592 7.41761 46.7836 7.75568 46.9427 8.07386H47.0706V1.54545H50.1643V19H47.1302V16.9375H46.9427C46.7836 17.2557 46.5535 17.5937 46.2524 17.9517C45.9512 18.304 45.5535 18.6051 45.0592 18.8551C44.5649 19.1051 43.9427 19.2301 43.1927 19.2301ZM44.0535 16.6989C44.7069 16.6989 45.2637 16.5227 45.724 16.1705C46.1842 15.8125 46.5336 15.3153 46.7723 14.679C47.0109 14.0426 47.1302 13.3011 47.1302 12.4545C47.1302 11.608 47.0109 10.8722 46.7723 10.2472C46.5393 9.62216 46.1927 9.13636 45.7325 8.78977C45.2779 8.44318 44.7183 8.26989 44.0535 8.26989C43.366 8.26989 42.7921 8.44886 42.3319 8.80682C41.8717 9.16477 41.5251 9.65909 41.2921 10.2898C41.0592 10.9205 40.9427 11.642 40.9427 12.4545C40.9427 13.2727 41.0592 14.0028 41.2921 14.6449C41.5308 15.2812 41.8802 15.7841 42.3404 16.1534C42.8063 16.517 43.3774 16.6989 44.0535 16.6989ZM58.0699 19.2301C57.0415 19.2301 56.121 18.9659 55.3085 18.4375C54.496 17.9091 53.854 17.142 53.3824 16.1364C52.9108 15.1307 52.675 13.9091 52.675 12.4716C52.675 11.017 52.9136 9.78977 53.3909 8.78977C53.8739 7.78409 54.5244 7.02557 55.3426 6.5142C56.1608 5.99716 57.0727 5.73864 58.0784 5.73864C58.8455 5.73864 59.4761 5.86932 59.9705 6.13068C60.4648 6.38636 60.8568 6.69602 61.1466 7.05966C61.4364 7.41761 61.6608 7.75568 61.8199 8.07386H61.9477V1.54545H65.0415V19H62.0074V16.9375H61.8199C61.6608 17.2557 61.4307 17.5937 61.1296 17.9517C60.8284 18.304 60.4307 18.6051 59.9364 18.8551C59.4421 19.1051 58.8199 19.2301 58.0699 19.2301ZM58.9307 16.6989C59.5841 16.6989 60.1409 16.5227 60.6011 16.1705C61.0614 15.8125 61.4108 15.3153 61.6494 14.679C61.8881 14.0426 62.0074 13.3011 62.0074 12.4545C62.0074 11.608 61.8881 10.8722 61.6494 10.2472C61.4165 9.62216 61.0699 9.13636 60.6097 8.78977C60.1551 8.44318 59.5955 8.26989 58.9307 8.26989C58.2432 8.26989 57.6693 8.44886 57.2091 8.80682C56.7489 9.16477 56.4023 9.65909 56.1693 10.2898C55.9364 10.9205 55.8199 11.642 55.8199 12.4545C55.8199 13.2727 55.9364 14.0028 56.1693 14.6449C56.408 15.2812 56.7574 15.7841 57.2176 16.1534C57.6835 16.517 58.2546 16.6989 58.9307 16.6989Z" fill="#FF8FAB"/>
<path d="M73.8846 19.2557C72.5721 19.2557 71.4386 18.983 70.484 18.4375C69.5352 17.8864 68.805 17.108 68.2937 16.1023C67.7823 15.0909 67.5266 13.9006 67.5266 12.5312C67.5266 11.1847 67.7823 10.0028 68.2937 8.9858C68.8107 7.96307 69.5323 7.16761 70.4585 6.59943C71.3846 6.02557 72.4727 5.73864 73.7227 5.73864C74.5295 5.73864 75.2908 5.86932 76.0067 6.13068C76.7283 6.38636 77.3647 6.78409 77.9158 7.32386C78.4727 7.86364 78.9102 8.55114 79.2283 9.38636C79.5465 10.2159 79.7056 11.2045 79.7056 12.3523V13.2983H68.9755V11.2188H76.7482C76.7425 10.6278 76.6147 10.1023 76.3647 9.64205C76.1147 9.17614 75.7653 8.80966 75.3164 8.54261C74.8732 8.27557 74.3562 8.14205 73.7653 8.14205C73.1346 8.14205 72.5806 8.29545 72.1033 8.60227C71.6261 8.90341 71.2539 9.30114 70.9869 9.79545C70.7255 10.2841 70.592 10.821 70.5863 11.4062V13.2216C70.5863 13.983 70.7255 14.6364 71.0039 15.1818C71.2823 15.7216 71.6715 16.1364 72.1715 16.4261C72.6715 16.7102 73.2567 16.8523 73.9272 16.8523C74.3761 16.8523 74.7823 16.7898 75.146 16.6648C75.5096 16.5341 75.8249 16.3438 76.092 16.0938C76.359 15.8438 76.5607 15.5341 76.6971 15.1648L79.5778 15.4886C79.396 16.25 79.0494 16.9148 78.538 17.483C78.0323 18.0455 77.3846 18.483 76.5948 18.7955C75.805 19.1023 74.9016 19.2557 73.8846 19.2557ZM92.4223 9.36932L89.6098 9.67614C89.5302 9.39205 89.391 9.125 89.1922 8.875C88.999 8.625 88.7376 8.4233 88.4081 8.26989C88.0785 8.11648 87.6751 8.03977 87.1979 8.03977C86.5558 8.03977 86.016 8.17898 85.5785 8.45739C85.1467 8.7358 84.9337 9.09659 84.9393 9.53977C84.9337 9.92045 85.0729 10.2301 85.3569 10.4688C85.6467 10.7074 86.124 10.9034 86.7888 11.0568L89.0217 11.5341C90.2604 11.8011 91.1808 12.2244 91.7831 12.804C92.391 13.3835 92.6979 14.142 92.7035 15.0795C92.6979 15.9034 92.4564 16.6307 91.9791 17.2614C91.5075 17.8864 90.8513 18.375 90.0104 18.7273C89.1694 19.0795 88.2035 19.2557 87.1126 19.2557C85.5104 19.2557 84.2206 18.9205 83.2433 18.25C82.266 17.5739 81.6837 16.6335 81.4962 15.429L84.5047 15.1392C84.641 15.7301 84.9308 16.1761 85.374 16.4773C85.8172 16.7784 86.3939 16.929 87.1041 16.929C87.8371 16.929 88.4251 16.7784 88.8683 16.4773C89.3172 16.1761 89.5416 15.804 89.5416 15.3608C89.5416 14.9858 89.3967 14.6761 89.1069 14.4318C88.8229 14.1875 88.3797 14 87.7774 13.8693L85.5444 13.4006C84.2888 13.1392 83.3598 12.6989 82.7575 12.0795C82.1552 11.4545 81.8569 10.6648 81.8626 9.71023C81.8569 8.90341 82.0757 8.20455 82.5189 7.61364C82.9677 7.01705 83.5899 6.55682 84.3854 6.23295C85.1865 5.90341 86.1098 5.73864 87.1552 5.73864C88.6893 5.73864 89.8967 6.06534 90.7774 6.71875C91.6638 7.37216 92.2121 8.25568 92.4223 9.36932ZM95.0076 19V5.90909H98.0928V19H95.0076ZM96.5587 4.05114C96.0701 4.05114 95.6496 3.8892 95.2973 3.56534C94.9451 3.23579 94.7689 2.84091 94.7689 2.38068C94.7689 1.91477 94.9451 1.51989 95.2973 1.19602C95.6496 0.866477 96.0701 0.701704 96.5587 0.701704C97.053 0.701704 97.4735 0.866477 97.8201 1.19602C98.1723 1.51989 98.3485 1.91477 98.3485 2.38068C98.3485 2.84091 98.1723 3.23579 97.8201 3.56534C97.4735 3.8892 97.053 4.05114 96.5587 4.05114ZM106.719 24.1818C105.611 24.1818 104.659 24.0313 103.863 23.7301C103.068 23.4347 102.429 23.0369 101.946 22.5369C101.463 22.0369 101.128 21.483 100.94 20.875L103.719 20.2017C103.844 20.4574 104.025 20.7102 104.264 20.9602C104.503 21.2159 104.824 21.4261 105.227 21.5909C105.636 21.7614 106.15 21.8466 106.77 21.8466C107.645 21.8466 108.369 21.6335 108.943 21.2074C109.517 20.7869 109.804 20.0938 109.804 19.1278V16.6477H109.65C109.491 16.9659 109.258 17.2926 108.952 17.6278C108.65 17.9631 108.25 18.2443 107.75 18.4716C107.255 18.6989 106.633 18.8125 105.883 18.8125C104.878 18.8125 103.966 18.5767 103.148 18.1051C102.335 17.6278 101.687 16.9176 101.204 15.9744C100.727 15.0256 100.488 13.8381 100.488 12.4119C100.488 10.9744 100.727 9.76136 101.204 8.77273C101.687 7.77841 102.338 7.02557 103.156 6.5142C103.974 5.99716 104.886 5.73864 105.892 5.73864C106.659 5.73864 107.29 5.86932 107.784 6.13068C108.284 6.38636 108.682 6.69602 108.977 7.05966C109.273 7.41761 109.497 7.75568 109.65 8.07386H109.821V5.90909H112.863V19.2131C112.863 20.3324 112.596 21.2585 112.062 21.9915C111.528 22.7244 110.798 23.2727 109.872 23.6364C108.946 24 107.895 24.1818 106.719 24.1818ZM106.744 16.392C107.398 16.392 107.954 16.233 108.415 15.9148C108.875 15.5966 109.224 15.1392 109.463 14.5426C109.702 13.946 109.821 13.2301 109.821 12.3949C109.821 11.571 109.702 10.8494 109.463 10.2301C109.23 9.6108 108.883 9.13068 108.423 8.78977C107.969 8.44318 107.409 8.26989 106.744 8.26989C106.057 8.26989 105.483 8.44886 105.023 8.80682C104.562 9.16477 104.216 9.65625 103.983 10.2812C103.75 10.9006 103.633 11.6051 103.633 12.3949C103.633 13.196 103.75 13.8977 103.983 14.5C104.221 15.0966 104.571 15.5625 105.031 15.8977C105.497 16.2273 106.068 16.392 106.744 16.392ZM118.871 11.3295V19H115.785V5.90909H118.734V8.13352H118.888C119.189 7.40057 119.669 6.81818 120.328 6.38636C120.993 5.95455 121.814 5.73864 122.791 5.73864C123.694 5.73864 124.481 5.93182 125.152 6.31818C125.828 6.70455 126.351 7.2642 126.72 7.99716C127.095 8.73011 127.28 9.61932 127.274 10.6648V19H124.189V11.142C124.189 10.267 123.962 9.58239 123.507 9.08807C123.058 8.59375 122.436 8.34659 121.64 8.34659C121.101 8.34659 120.621 8.46591 120.2 8.70455C119.785 8.9375 119.459 9.27557 119.22 9.71875C118.987 10.1619 118.871 10.6989 118.871 11.3295Z" fill="black"/>
</svg>
