<svg width="138" height="182" fill="none" xmlns="http://www.w3.org/2000/svg"><circle cx="68" cy="114" r="68" fill="#FF8FAB"/><path d="M8.797 88.075h8.4l14.7 41.4-1.275-.525 10.725-27.75 3.375 9.825-14.325 33.45-21.6-56.4Zm26.025 0h7.275l15.9 40.8-1.5-.3 14.025-40.5h7.725l-21.3 56.325-22.125-56.325ZM81.608 142V87.775h14.775c5.35 0 9.9.825 13.65 2.475 3.8 1.65 6.85 3.825 9.15 6.525 2.3 2.7 3.975 5.7 5.025 9 1.1 3.25 1.65 6.5 1.65 9.75 0 4.1-.725 7.775-2.175 11.025-1.4 3.25-3.35 6.025-5.85 8.325-2.5 2.3-5.375 4.075-8.625 5.325-3.2 1.2-6.6 1.8-10.2 1.8h-17.4Zm7.275-6.975h8.7c3 0 5.75-.45 8.25-1.35 2.55-.9 4.75-2.2 6.6-3.9 1.9-1.7 3.375-3.775 4.425-6.225 1.05-2.5 1.575-5.325 1.575-8.475 0-3.35-.55-6.275-1.65-8.775-1.1-2.55-2.6-4.675-4.5-6.375-1.9-1.7-4.05-2.975-6.45-3.825-2.4-.9-4.925-1.35-7.575-1.35h-9.375v40.275Z" fill="#000"/><path d="M8 107h125v14H8v-14Z" fill="#FF8FAB"/><path d="M9.19 109.504h.672l2.82 7.704-.132-.036 1.776-4.8.276.756-2.052 5.268-3.36-8.892Zm3.924 0h.588l2.928 7.704-.18-.048 2.856-7.656h.624l-3.42 8.88-3.396-8.88Zm8.761-.024h5.256v.564h-4.668v3.384h4.2v.564h-4.2v3.444H27.3V118h-5.424v-8.52ZM29.54 118v-8.52h2.1c.824 0 1.524.132 2.1.396.584.256 1.056.596 1.416 1.02.36.424.624.888.792 1.392.168.504.252 1.004.252 1.5 0 .648-.112 1.232-.336 1.752a3.97 3.97 0 0 1-.924 1.32 4.113 4.113 0 0 1-1.32.852 4.316 4.316 0 0 1-1.572.288H29.54Zm.588-.564h1.764c.512 0 .992-.084 1.44-.252.448-.168.84-.412 1.176-.732a3.36 3.36 0 0 0 .804-1.152c.192-.456.288-.972.288-1.548 0-.488-.084-.952-.252-1.392a3.322 3.322 0 0 0-.732-1.188 3.519 3.519 0 0 0-1.212-.816c-.48-.2-1.04-.3-1.68-.3h-1.596v7.38Zm8.248.564v-8.52h2.1c.824 0 1.523.132 2.1.396.584.256 1.056.596 1.416 1.02.36.424.623.888.791 1.392.169.504.252 1.004.252 1.5 0 .648-.111 1.232-.335 1.752a3.97 3.97 0 0 1-.925 1.32 4.113 4.113 0 0 1-1.32.852 4.316 4.316 0 0 1-1.572.288h-2.508Zm.588-.564h1.764c.511 0 .991-.084 1.44-.252.447-.168.84-.412 1.175-.732a3.36 3.36 0 0 0 .804-1.152c.193-.456.288-.972.288-1.548 0-.488-.084-.952-.252-1.392a3.322 3.322 0 0 0-.731-1.188 3.519 3.519 0 0 0-1.212-.816c-.48-.2-1.04-.3-1.68-.3h-1.596v7.38Zm8.248-7.956h.587V118h-.587v-8.52Zm10.432 8.724-6.72-7.572.156-.12.012 7.488h-.576v-8.7h.036l6.72 7.632-.156.048-.012-7.5h.564v8.724h-.024Zm9.171-.804c-.144.096-.32.188-.528.276-.2.08-.416.152-.648.216a5.213 5.213 0 0 1-.72.144c-.24.04-.468.06-.684.06-.672 0-1.28-.108-1.824-.324a4.237 4.237 0 0 1-1.38-.912 4.152 4.152 0 0 1-.888-1.356c-.2-.52-.3-1.08-.3-1.68 0-.648.112-1.244.336-1.788a4.306 4.306 0 0 1 .948-1.404c.4-.4.864-.708 1.392-.924a4.394 4.394 0 0 1 1.68-.324c.448 0 .868.056 1.26.168.4.112.76.264 1.08.456l-.216.528a3.208 3.208 0 0 0-.624-.288 4.365 4.365 0 0 0-.72-.204 3.916 3.916 0 0 0-2.232.216 3.69 3.69 0 0 0-1.212.804 3.69 3.69 0 0 0-.804 1.212 3.916 3.916 0 0 0-.288 1.512c0 .528.088 1.02.264 1.476.184.448.44.844.768 1.188.336.336.736.6 1.2.792.464.184.98.276 1.548.276.336 0 .688-.04 1.056-.12.368-.08.684-.196.948-.348v-2.364h-1.92v-.564h2.508v3.276Zm6.143.6v-8.52h2.1c.824 0 1.524.132 2.1.396.584.256 1.056.596 1.416 1.02.36.424.624.888.792 1.392.168.504.252 1.004.252 1.5 0 .648-.112 1.232-.336 1.752a3.97 3.97 0 0 1-.924 1.32 4.113 4.113 0 0 1-1.32.852 4.316 4.316 0 0 1-1.572.288h-2.508Zm.588-.564h1.764c.512 0 .992-.084 1.44-.252.448-.168.84-.412 1.176-.732a3.36 3.36 0 0 0 .804-1.152c.192-.456.288-.972.288-1.548 0-.488-.084-.952-.252-1.392a3.322 3.322 0 0 0-.732-1.188 3.519 3.519 0 0 0-1.212-.816c-.48-.2-1.04-.3-1.68-.3h-1.596v7.38Zm8.247-7.956h5.256v.564h-4.668v3.384h4.2v.564h-4.2v3.444h4.837V118h-5.425v-8.52Zm11.925.96a5.836 5.836 0 0 0-.912-.336 3.875 3.875 0 0 0-1.08-.156c-.56 0-1.008.14-1.344.42-.336.28-.504.632-.504 1.056 0 .32.096.588.288.804.192.208.444.388.756.54.312.144.644.284.996.42.28.104.556.22.828.348.28.128.532.284.756.468.224.184.4.412.528.684.136.272.204.608.204 1.008 0 .472-.112.892-.336 1.26-.224.36-.536.64-.936.84-.4.2-.864.3-1.392.3-.424 0-.812-.052-1.164-.156a5.417 5.417 0 0 1-.912-.36c-.256-.144-.46-.264-.612-.36l.276-.48c.176.128.388.256.636.384.256.128.532.236.828.324.296.088.592.132.888.132.344 0 .676-.068.996-.204.328-.136.596-.34.804-.612.216-.28.324-.632.324-1.056 0-.408-.1-.736-.3-.984a2.275 2.275 0 0 0-.768-.624 8.684 8.684 0 0 0-.996-.432 34.558 34.558 0 0 1-.816-.324c-.272-.12-.52-.26-.744-.42a2.027 2.027 0 0 1-.54-.6 1.715 1.715 0 0 1-.192-.84c0-.408.104-.764.312-1.068a2.08 2.08 0 0 1 .84-.708c.36-.176.768-.268 1.224-.276.4 0 .804.052 1.212.156.416.104.776.236 1.08.396l-.228.456Zm2.712-.96h.588V118h-.588v-8.52Zm9.737 7.92c-.144.096-.32.188-.528.276-.2.08-.416.152-.648.216a5.213 5.213 0 0 1-.72.144c-.24.04-.468.06-.684.06-.672 0-1.28-.108-1.824-.324a4.237 4.237 0 0 1-1.38-.912 4.15 4.15 0 0 1-.888-1.356c-.2-.52-.3-1.08-.3-1.68 0-.648.112-1.244.336-1.788a4.307 4.307 0 0 1 .948-1.404c.4-.4.864-.708 1.392-.924a4.394 4.394 0 0 1 1.68-.324c.448 0 .868.056 1.26.168.4.112.76.264 1.08.456l-.216.528a3.208 3.208 0 0 0-.624-.288 4.365 4.365 0 0 0-.72-.204 3.916 3.916 0 0 0-2.232.216 3.69 3.69 0 0 0-1.212.804 3.69 3.69 0 0 0-.804 1.212 3.914 3.914 0 0 0-.288 1.512c0 .528.088 1.02.264 1.476.184.448.44.844.768 1.188.336.336.736.6 1.2.792.464.184.98.276 1.548.276.336 0 .688-.04 1.056-.12.368-.08.684-.196.948-.348v-2.364h-1.92v-.564h2.508v3.276Zm9.59.804-6.72-7.572.156-.12.012 7.488h-.576v-8.7h.036l6.72 7.632-.156.048-.012-7.5h.564v8.724h-.024Zm2.74-8.724h5.256v.564h-4.668v3.384h4.2v.564h-4.2v3.444h4.836V118h-5.424v-8.52Zm9.608 0c.32 0 .636.048.948.144.32.088.608.232.864.432.264.192.476.44.636.744.16.304.24.668.24 1.092 0 .32-.048.632-.144.936a2.212 2.212 0 0 1-.468.804c-.216.24-.496.432-.84.576-.344.144-.768.216-1.272.216h-1.32V118h-.588v-8.52h1.944Zm-.072 4.38c.424 0 .776-.06 1.056-.18s.5-.276.66-.468c.16-.192.272-.4.336-.624.072-.232.108-.456.108-.672 0-.256-.048-.496-.144-.72a1.626 1.626 0 0 0-.396-.588 1.811 1.811 0 0 0-.636-.408 2.121 2.121 0 0 0-.828-.156h-1.44v3.816h1.284Zm1.224.264 2.364 3.876h-.684l-2.376-3.864.696-.012Z" fill="#000"/><path d="M9.57 27 4.644 9.545h3.4l3.145 12.827h.162l3.358-12.827h3.094l3.366 12.836h.154l3.145-12.836h3.4L22.942 27h-3.12l-3.494-12.247h-.136L12.689 27h-3.12Zm24.574.256c-1.313 0-2.446-.273-3.4-.819a5.54 5.54 0 0 1-2.191-2.335c-.512-1.011-.767-2.201-.767-3.57 0-1.347.255-2.53.767-3.546.517-1.023 1.238-1.818 2.165-2.387.926-.573 2.014-.86 3.264-.86.806 0 1.568.13 2.284.392a5.162 5.162 0 0 1 1.909 1.193c.557.54.994 1.227 1.312 2.062.319.83.478 1.819.478 2.966v.946h-10.73v-2.08h7.772c-.005-.59-.133-1.116-.383-1.576a2.79 2.79 0 0 0-1.049-1.1c-.443-.266-.96-.4-1.55-.4-.631 0-1.185.154-1.663.46a3.17 3.17 0 0 0-1.116 1.194 3.433 3.433 0 0 0-.4 1.61v1.816c0 .761.139 1.414.417 1.96.278.54.668.954 1.168 1.244.5.284 1.085.426 1.755.426.45 0 .855-.062 1.219-.187a2.69 2.69 0 0 0 .946-.571c.267-.25.469-.56.605-.93l2.88.325a4.491 4.491 0 0 1-1.039 1.994c-.506.563-1.153 1-1.943 1.313-.79.306-1.693.46-2.71.46Zm13.049-.026c-1.029 0-1.95-.264-2.762-.793-.812-.528-1.454-1.295-1.926-2.3-.471-1.006-.707-2.228-.707-3.665 0-1.455.238-2.682.716-3.682.483-1.006 1.133-1.764 1.951-2.276a5.016 5.016 0 0 1 2.736-.775c.767 0 1.398.13 1.892.392.495.255.887.565 1.176.929.29.358.515.696.674 1.014h.128V9.545h3.093V27H51.13v-2.063h-.187c-.16.319-.39.657-.69 1.015-.302.352-.7.653-1.194.903s-1.116.375-1.866.375Zm.86-2.531c.654 0 1.21-.176 1.671-.529.46-.358.81-.855 1.048-1.491.239-.636.358-1.378.358-2.224 0-.847-.12-1.583-.358-2.208-.233-.625-.58-1.11-1.04-1.457-.454-.347-1.014-.52-1.678-.52-.688 0-1.262.179-1.722.537-.46.358-.807.852-1.04 1.483-.233.63-.35 1.352-.35 2.165 0 .818.117 1.548.35 2.19.239.636.588 1.14 1.048 1.508.466.364 1.037.546 1.713.546ZM62.07 27.23c-1.029 0-1.949-.264-2.761-.793-.813-.528-1.455-1.295-1.927-2.3-.471-1.006-.707-2.228-.707-3.665 0-1.455.239-2.682.716-3.682.483-1.006 1.133-1.764 1.952-2.276a5.016 5.016 0 0 1 2.735-.775c.767 0 1.398.13 1.892.392.495.255.887.565 1.177.929.29.358.514.696.673 1.014h.128V9.545h3.094V27h-3.035v-2.063h-.187c-.16.319-.39.657-.69 1.015-.302.352-.7.653-1.194.903s-1.116.375-1.866.375Zm.86-2.531c.654 0 1.21-.176 1.671-.529.46-.358.81-.855 1.048-1.491.24-.636.358-1.378.358-2.224 0-.847-.119-1.583-.358-2.208-.233-.625-.58-1.11-1.04-1.457-.454-.347-1.013-.52-1.678-.52-.688 0-1.262.179-1.722.537-.46.358-.807.852-1.04 1.483-.233.63-.35 1.352-.35 2.165 0 .818.117 1.548.35 2.19.239.636.588 1.14 1.049 1.508.465.364 1.037.546 1.713.546Z" fill="#FF8FAB"/><path d="M77.885 27.256c-1.313 0-2.446-.273-3.401-.819a5.54 5.54 0 0 1-2.19-2.335c-.512-1.011-.767-2.201-.767-3.57 0-1.347.255-2.53.767-3.546.517-1.023 1.238-1.818 2.165-2.387.926-.573 2.014-.86 3.264-.86.806 0 1.568.13 2.284.392a5.162 5.162 0 0 1 1.909 1.193c.557.54.994 1.227 1.312 2.062.319.83.478 1.819.478 2.966v.946h-10.73v-2.08h7.772c-.005-.59-.133-1.116-.383-1.576-.25-.466-.6-.832-1.049-1.1-.443-.266-.96-.4-1.55-.4-.631 0-1.185.154-1.663.46a3.17 3.17 0 0 0-1.116 1.194 3.433 3.433 0 0 0-.4 1.61v1.816c0 .761.138 1.414.417 1.96.278.54.667.954 1.167 1.244.5.284 1.086.426 1.756.426.45 0 .855-.062 1.219-.187a2.69 2.69 0 0 0 .946-.571c.267-.25.469-.56.605-.93l2.88.325a4.49 4.49 0 0 1-1.039 1.994c-.506.563-1.153 1-1.943 1.313-.79.306-1.693.46-2.71.46Zm18.537-9.887-2.812.307a2.262 2.262 0 0 0-.418-.801 2.074 2.074 0 0 0-.784-.605c-.33-.154-.733-.23-1.21-.23-.642 0-1.182.139-1.62.417-.431.279-.644.64-.639 1.083-.005.38.134.69.418.929.29.238.767.434 1.432.588l2.233.477c1.238.267 2.159.69 2.761 1.27.608.58.915 1.338.92 2.276a3.557 3.557 0 0 1-.724 2.181c-.472.625-1.128 1.114-1.969 1.466-.84.352-1.806.529-2.897.529-1.603 0-2.892-.335-3.87-1.006-.977-.676-1.56-1.616-1.747-2.821l3.009-.29c.136.591.426 1.037.869 1.338.443.301 1.02.452 1.73.452.733 0 1.321-.15 1.764-.452.45-.3.674-.673.674-1.116 0-.375-.145-.685-.435-.93-.284-.244-.727-.431-1.33-.562l-2.233-.468c-1.255-.262-2.184-.702-2.787-1.322-.602-.625-.9-1.414-.894-2.369-.006-.807.213-1.506.656-2.096.449-.597 1.07-1.057 1.866-1.381.801-.33 1.725-.494 2.77-.494 1.534 0 2.742.326 3.622.98.887.653 1.435 1.537 1.645 2.65ZM99.008 27V13.91h3.085V27h-3.085Zm1.551-14.949a1.8 1.8 0 0 1-1.262-.486c-.352-.33-.528-.724-.528-1.184 0-.466.176-.861.528-1.185.353-.33.773-.494 1.262-.494.494 0 .914.164 1.261.494.352.324.528.719.528 1.185 0 .46-.176.855-.528 1.184a1.78 1.78 0 0 1-1.261.486Zm10.16 20.13c-1.108 0-2.06-.15-2.856-.45-.795-.296-1.434-.694-1.917-1.194a4.136 4.136 0 0 1-1.006-1.662l2.779-.673c.125.255.306.508.545.758.239.256.56.466.963.63.409.171.923.257 1.543.257.875 0 1.599-.213 2.173-.64.574-.42.861-1.113.861-2.08v-2.48h-.154a4.396 4.396 0 0 1-.698.98c-.302.336-.702.617-1.202.845-.495.227-1.117.34-1.867.34-1.005 0-1.917-.235-2.735-.707-.813-.477-1.461-1.187-1.944-2.13-.477-.95-.716-2.137-.716-3.563 0-1.438.239-2.65.716-3.64.483-.994 1.134-1.746 1.952-2.258a5.016 5.016 0 0 1 2.736-.775c.767 0 1.398.13 1.892.392.5.255.898.565 1.193.929.296.358.52.696.673 1.014h.171v-2.165h3.042v13.304c0 1.12-.267 2.046-.801 2.778-.534.733-1.264 1.282-2.19 1.645-.926.364-1.977.546-3.153.546Zm.025-7.789c.654 0 1.21-.159 1.671-.477.46-.318.809-.776 1.048-1.372.239-.597.358-1.313.358-2.148 0-.824-.119-1.546-.358-2.165-.233-.62-.58-1.1-1.04-1.44-.454-.347-1.014-.52-1.679-.52-.687 0-1.261.179-1.721.537-.461.358-.807.85-1.04 1.474-.233.62-.35 1.324-.35 2.114 0 .801.117 1.503.35 2.105.238.597.588 1.063 1.048 1.398.466.33 1.037.494 1.713.494Zm12.127-5.063V27h-3.086V13.91h2.949v2.224h.154a3.74 3.74 0 0 1 1.44-1.748c.665-.431 1.486-.647 2.463-.647.903 0 1.69.193 2.361.58.676.385 1.199.945 1.568 1.678.375.733.56 1.622.554 2.668V27h-3.085v-7.858c0-.875-.227-1.56-.682-2.054-.449-.494-1.071-.741-1.867-.741-.539 0-1.019.119-1.44.357a2.483 2.483 0 0 0-.98 1.015c-.233.443-.349.98-.349 1.61Z" fill="#000"/></svg>