<svg width="44" height="44" viewBox="0 0 44 44" fill="none" xmlns="http://www.w3.org/2000/svg">
<g filter="url(#filter0_d_2369_191)">
<rect x="2" y="1" width="40" height="40" rx="8" fill="#91BEE8" shape-rendering="crispEdges"/>
<path d="M26 30V28C26 26.9391 25.5786 25.9217 24.8284 25.1716C24.0783 24.4214 23.0609 24 22 24H15C13.9391 24 12.9217 24.4214 12.1716 25.1716C11.4214 25.9217 11 26.9391 11 28V30M30 17V23M33 20H27M22.5 16C22.5 18.2091 20.7091 20 18.5 20C16.2909 20 14.5 18.2091 14.5 16C14.5 13.7909 16.2909 12 18.5 12C20.7091 12 22.5 13.7909 22.5 16Z" stroke="#1E1E1E" stroke-width="2" stroke-linecap="round" stroke-linejoin="round"/>
</g>
<defs>
<filter id="filter0_d_2369_191" x="0" y="0" width="44" height="44" filterUnits="userSpaceOnUse" color-interpolation-filters="sRGB">
<feFlood flood-opacity="0" result="BackgroundImageFix"/>
<feColorMatrix in="SourceAlpha" type="matrix" values="0 0 0 0 0 0 0 0 0 0 0 0 0 0 0 0 0 0 127 0" result="hardAlpha"/>
<feOffset dy="1"/>
<feGaussianBlur stdDeviation="1"/>
<feComposite in2="hardAlpha" operator="out"/>
<feColorMatrix type="matrix" values="0 0 0 0 0 0 0 0 0 0 0 0 0 0 0 0 0 0 0.05 0"/>
<feBlend mode="normal" in2="BackgroundImageFix" result="effect1_dropShadow_2369_191"/>
<feBlend mode="normal" in="SourceGraphic" in2="effect1_dropShadow_2369_191" result="shape"/>
</filter>
</defs>
</svg>
