<svg width="35" height="35" viewBox="0 0 35 35" fill="none" xmlns="http://www.w3.org/2000/svg">
<path d="M6.39844 20.8906C5.41406 20.8906 4.64844 21.6563 4.64844 22.6406C4.64844 23.625 5.41406 24.3906 6.39844 24.3906C7.38281 24.3906 8.14844 23.625 8.14844 22.6406C8.14844 21.6563 7.38281 20.8906 6.39844 20.8906ZM6.39844 23.1875C6.07031 23.1875 5.85156 22.9688 5.85156 22.6406C5.85156 22.3125 6.07031 22.0938 6.39844 22.0938C6.72656 22.0938 6.94531 22.3125 6.94531 22.6406C6.94531 22.9141 6.72656 23.1875 6.39844 23.1875Z" fill="black"/>
<path d="M26.4141 20.8906C25.4297 20.8906 24.6641 21.6563 24.6641 22.6406C24.6641 23.625 25.4297 24.3906 26.4141 24.3906C27.3984 24.3906 28.1641 23.625 28.1641 22.6406C28.1641 21.6563 27.3984 20.8906 26.4141 20.8906ZM26.4141 23.1875C26.0859 23.1875 25.8672 22.9688 25.8672 22.6406C25.8672 22.3125 26.0859 22.0938 26.4141 22.0938C26.7422 22.0938 26.9609 22.3125 26.9609 22.6406C26.9609 22.9141 26.7422 23.1875 26.4141 23.1875Z" fill="black"/>
<path d="M33.5234 13.6172H33.1953C32.8125 11.3203 30.2969 8.36719 26.6328 8.36719H14.2188C10.9375 8.36719 8.09375 13.3437 7.38281 14.7109H4.21094C1.85937 14.7109 0 16.625 0 18.9219V21.9844C0 22.6406 0.546875 23.1875 1.20312 23.1875H2.46094C2.73438 25.1016 4.42969 26.5781 6.39844 26.5781C8.36719 26.5781 10.0625 25.1016 10.3359 23.1875H22.4766C22.75 25.1016 24.4453 26.5781 26.4141 26.5781C28.3828 26.5781 30.0781 25.1016 30.3516 23.1875H32.0469C32.7031 23.1875 33.25 22.6406 33.25 21.9844V19.1406H33.5234C34.3438 19.1406 35 18.4844 35 17.6641V15.0938C35 14.2734 34.3438 13.6172 33.5234 13.6172ZM6.39844 25.375C4.86719 25.375 3.60938 24.1172 3.60938 22.5859C3.60938 21.0547 4.86719 19.7969 6.39844 19.7969C7.92969 19.7969 9.1875 21.0547 9.1875 22.5859C9.1875 24.1719 7.92969 25.375 6.39844 25.375ZM26.4141 25.375C24.8828 25.375 23.625 24.1172 23.625 22.5859C23.625 21.0547 24.8828 19.7969 26.4141 19.7969C27.9453 19.7969 29.2031 21.0547 29.2031 22.5859C29.2031 24.1719 27.9453 25.375 26.4141 25.375ZM32.0469 22.0391H30.3516C30.0781 20.125 28.3828 18.6484 26.4141 18.6484C24.4453 18.6484 22.75 20.125 22.4766 22.0391H10.3359C10.0625 20.125 8.36719 18.6484 6.39844 18.6484C4.42969 18.6484 2.73438 20.125 2.46094 22.0391H1.20312V18.9766C1.20312 17.3359 2.57031 15.9688 4.21094 15.9688H7.71094C7.92969 15.9688 8.14844 15.8594 8.25781 15.6406C9.07812 13.9453 11.7578 9.625 14.2188 9.625H26.5781C29.9688 9.625 31.9922 12.6328 31.9922 14.2734V18.5938V22.0391H32.0469ZM33.7969 17.6641C33.7969 17.8281 33.6875 17.9375 33.5234 17.9375H33.25V14.8203H33.5234C33.6875 14.8203 33.7969 14.9297 33.7969 15.0938V17.6641Z" fill="black"/>
<path d="M19.6328 10.8828H15.5859C14 10.8828 12.4688 11.6484 11.6484 12.9609L10.2812 15.0391C10.1719 15.2031 10.1719 15.4766 10.2812 15.6406C10.3906 15.8594 10.6094 15.9688 10.8281 15.9688H19.6328C19.9609 15.9688 20.2344 15.6953 20.2344 15.3672V11.4844C20.2344 11.1563 19.9609 10.8828 19.6328 10.8828ZM19.0312 14.7656H11.9219L12.6875 13.6172C13.2891 12.6875 14.3828 12.0859 15.5859 12.0859H19.0312V14.7656Z" fill="black"/>
<path d="M25.5937 10.8828H22.1484C21.8203 10.8828 21.5469 11.1563 21.5469 11.4844V15.3672C21.5469 15.6953 21.8203 15.9688 22.1484 15.9688H29.75C30.0781 15.9688 30.3516 15.6953 30.3516 15.3672C30.4062 12.9063 28.2734 10.8828 25.5937 10.8828ZM22.8047 14.7656V12.0859H25.6484C27.3984 12.0859 28.875 13.2344 29.1484 14.7656H22.8047Z" fill="black"/>
</svg>
