<svg width="24" height="19" viewBox="0 0 24 19" fill="none" xmlns="http://www.w3.org/2000/svg">
<path d="M2.37109 0H6.40625H12.1543H17.7793H21.6289C22.2812 0 22.875 0.267578 23.3047 0.695313C23.7344 1.125 24 1.71875 24 2.37109V3.76367V14.9453V16.3301C24 16.9824 23.7324 17.5762 23.3047 18.0059C22.875 18.4355 22.2812 18.7012 21.6289 18.7012H17.8789C17.8477 18.707 17.8145 18.709 17.7793 18.709C17.7461 18.709 17.7129 18.707 17.6797 18.7012H12.2539C12.2227 18.707 12.1895 18.709 12.1543 18.709C12.1211 18.709 12.0879 18.707 12.0547 18.7012H6.50586C6.47461 18.707 6.44141 18.709 6.40625 18.709C6.37305 18.709 6.33984 18.707 6.30664 18.7012H2.37109C1.71875 18.7012 1.125 18.4336 0.695312 18.0059C0.265625 17.5781 0 16.9824 0 16.3301V14.9453V3.76367V2.37109C0 1.71875 0.267578 1.125 0.695312 0.695313C1.125 0.267578 1.71875 0 2.37109 0ZM10.7793 6.10156L14.7891 8.89844C14.8516 8.9375 14.9082 8.99219 14.9531 9.05664C15.1328 9.31641 15.0664 9.66992 14.8086 9.84961L10.8145 12.6113C10.7168 12.6914 10.5898 12.7402 10.4531 12.7402C10.1367 12.7402 9.88086 12.4844 9.88086 12.168V6.56836H9.88281C9.88281 6.45508 9.91602 6.3418 9.98438 6.24219C10.166 5.98438 10.5215 5.92188 10.7793 6.10156ZM18.3496 15.5176V17.5586H21.627C21.9648 17.5586 22.2715 17.4199 22.4941 17.1973C22.7168 16.9746 22.8555 16.668 22.8555 16.3301V15.5176H18.3496ZM17.207 17.5586V15.5176H12.7266V17.5586H17.207ZM11.584 17.5586V15.5176H6.97852V17.5586H11.584ZM5.83398 17.5586V15.5176H1.14258V16.3301C1.14258 16.668 1.28125 16.9746 1.50391 17.1973C1.72656 17.4199 2.0332 17.5586 2.37109 17.5586H5.83398ZM1.14258 14.375H6.40625H12.1543H17.7793H22.8574V4.33594H17.7793H12.1543H6.40625H1.14258V14.375ZM17.207 3.19336V1.14258H12.7266V3.19141H17.207V3.19336ZM18.3496 1.14258V3.19141H22.8555V2.37109C22.8555 2.0332 22.7168 1.72656 22.4941 1.50391C22.2715 1.28125 21.9648 1.14258 21.627 1.14258H18.3496ZM11.584 3.19336V1.14258H6.97852V3.19141H11.584V3.19336ZM5.83398 3.19336V1.14258H2.37109C2.0332 1.14258 1.72656 1.28125 1.50391 1.50391C1.28125 1.72656 1.14258 2.0332 1.14258 2.37109V3.19141H5.83398V3.19336Z" fill="black"/>
</svg>
