<svg width="26" height="26" viewBox="0 0 26 26" fill="none" xmlns="http://www.w3.org/2000/svg">
<path d="M19.63 11.5458L19.5812 11.3752L19.5 11.2777L19.4025 11.1639C19.3342 11.0927 19.2522 11.036 19.1615 10.9972C19.0707 10.9585 18.9731 10.9385 18.8744 10.9385C18.7757 10.9385 18.678 10.9585 18.5872 10.9972C18.4965 11.036 18.4145 11.0927 18.3462 11.1639L18.2487 11.2777L18.1837 11.4077C18.1803 11.4564 18.1803 11.5053 18.1837 11.5539C18.1764 11.6024 18.1764 11.6517 18.1837 11.7002C18.1812 11.7973 18.1977 11.8939 18.2325 11.9846C18.2704 12.0755 18.3256 12.1583 18.395 12.2283C18.463 12.3001 18.5463 12.3557 18.6387 12.3908C18.7319 12.4277 18.8311 12.4469 18.9312 12.4477H19.0775L19.2237 12.3989L19.3537 12.3339C19.3834 12.2892 19.4054 12.2397 19.4187 12.1877C19.4905 12.1197 19.5461 12.0364 19.5812 11.9439C19.6188 11.8538 19.6381 11.7572 19.6381 11.6596C19.6376 11.6215 19.6349 11.5836 19.63 11.5458Z" fill="black"/>
<path d="M21.125 8.54739L21.0762 8.40114L21.0112 8.27114L20.9137 8.12489C20.8455 8.05361 20.7635 7.99689 20.6727 7.95814C20.582 7.91939 20.4843 7.89941 20.3856 7.89941C20.2869 7.89941 20.1892 7.91939 20.0985 7.95814C20.0077 7.99689 19.9257 8.05361 19.8575 8.12489L19.76 8.23864L19.695 8.36864C19.6915 8.41732 19.6915 8.4662 19.695 8.51489C19.6876 8.56336 19.6876 8.61266 19.695 8.66114C19.6924 8.75821 19.709 8.85484 19.7437 8.94551C19.7816 9.03649 19.8368 9.11926 19.9062 9.18926C19.9742 9.26105 20.0575 9.3166 20.15 9.35176C20.2431 9.38859 20.3423 9.40787 20.4425 9.40864H20.5887L20.735 9.35989L20.865 9.29489C20.9078 9.26855 20.9461 9.23565 20.9787 9.19739C21.0505 9.12938 21.1061 9.04606 21.1412 8.95364C21.1512 8.86669 21.1457 8.77866 21.125 8.69364C21.1286 8.64495 21.1286 8.59607 21.125 8.54739Z" fill="black"/>
<path d="M17.3794 4.7937L17.3306 4.64745L17.2656 4.51745L17.1681 4.4037C17.0999 4.33242 17.0179 4.2757 16.9271 4.23695C16.8363 4.1982 16.7387 4.17822 16.64 4.17822C16.5413 4.17822 16.4436 4.1982 16.3529 4.23695C16.2621 4.2757 16.1801 4.33242 16.1119 4.4037L16.0144 4.51745L15.9494 4.64745C15.9459 4.69613 15.9459 4.74501 15.9494 4.7937C15.942 4.84217 15.942 4.89147 15.9494 4.93995C15.9468 5.03702 15.9633 5.13365 15.9981 5.22432C16.036 5.31529 16.0912 5.39807 16.1606 5.46807C16.2286 5.53986 16.3119 5.5954 16.4044 5.63057C16.4975 5.6674 16.5967 5.68668 16.6969 5.68745H16.8431L16.9894 5.6387L17.0625 5.56557C17.1053 5.53923 17.1437 5.50633 17.1762 5.46807C17.248 5.40006 17.3036 5.31675 17.3387 5.22432C17.3763 5.13421 17.3956 5.03756 17.3956 4.93995C17.3938 4.89086 17.3884 4.84198 17.3794 4.7937Z" fill="black"/>
<path d="M14.3731 7.79174L14.3243 7.64549L14.2593 7.51549L14.1618 7.40174C14.0936 7.33047 14.0116 7.27375 13.9208 7.235C13.8301 7.19625 13.7324 7.17627 13.6337 7.17627C13.535 7.17627 13.4374 7.19625 13.3466 7.235C13.2558 7.27375 13.1738 7.33047 13.1056 7.40174L13 7.52362L12.935 7.65362C12.9315 7.70231 12.9315 7.75118 12.935 7.79987C12.9276 7.84834 12.9276 7.89764 12.935 7.94612C12.9324 8.04319 12.9489 8.13982 12.9837 8.23049C13.0216 8.32147 13.0768 8.40424 13.1462 8.47424C13.2142 8.54603 13.2975 8.60158 13.39 8.63674C13.4831 8.67357 13.5823 8.69285 13.6825 8.69362H13.8287L13.975 8.64487L14.105 8.57987C14.1478 8.55353 14.1861 8.52063 14.2187 8.48237C14.2905 8.41436 14.346 8.33104 14.3812 8.23862C14.4188 8.14851 14.4381 8.05186 14.4381 7.95424C14.4213 7.89827 14.3995 7.84389 14.3731 7.79174Z" fill="black"/>
<path d="M9.87186 4.79387L9.82311 4.64762L9.74999 4.52575L9.65249 4.412C9.58423 4.34072 9.50225 4.284 9.41148 4.24525C9.32072 4.2065 9.22305 4.18652 9.12436 4.18652C9.02567 4.18652 8.92801 4.2065 8.83724 4.24525C8.74648 4.284 8.6645 4.34072 8.59624 4.412L8.49874 4.52575L8.43374 4.65575C8.43025 4.70443 8.43025 4.75331 8.43374 4.802C8.42638 4.85047 8.42638 4.89977 8.43374 4.94825C8.43116 5.04532 8.44772 5.14195 8.48249 5.23262C8.52042 5.3236 8.5756 5.40637 8.64499 5.47637C8.713 5.54816 8.79631 5.60371 8.88874 5.63887C8.9819 5.6757 9.08107 5.69498 9.18124 5.69575H9.32749L9.47374 5.647L9.60374 5.582C9.64653 5.55566 9.68492 5.52276 9.71749 5.4845C9.78928 5.41649 9.84482 5.33317 9.87999 5.24075C9.91753 5.15064 9.93686 5.05399 9.93686 4.95637C9.92003 4.90039 9.89828 4.84602 9.87186 4.79387Z" fill="black"/>
<path d="M14.235 19.8411C14.2634 19.717 14.2597 19.5877 14.2242 19.4654C14.1886 19.3431 14.1224 19.2319 14.0318 19.1424L6.61372 11.7161C6.5237 11.6247 6.41167 11.558 6.28842 11.5225C6.16516 11.4869 6.03483 11.4837 5.90996 11.513C5.78508 11.5424 5.66987 11.6034 5.57541 11.6902C5.48095 11.777 5.41041 11.8867 5.37059 12.0086L1.62497 23.148C1.57918 23.2805 1.57159 23.4232 1.60305 23.5599C1.63452 23.6965 1.70378 23.8215 1.80292 23.9207C1.90206 24.0198 2.02709 24.0891 2.16372 24.1205C2.30035 24.152 2.44307 24.1444 2.57559 24.0986L13.7068 20.3855C13.8354 20.3501 13.9522 20.281 14.0451 20.1853C14.1379 20.0895 14.2035 19.9707 14.235 19.8411ZM8.19809 20.6536L5.11059 17.558L5.51684 16.3392L9.42497 20.2474L8.19809 20.6536ZM4.57434 19.1505L6.60559 21.1817L3.55872 22.1974L4.57434 19.1505ZM11.0093 19.7192L6.04497 14.7467L6.41059 13.6417L12.0981 19.3292L11.0093 19.7192Z" fill="black"/>
<path d="M15.6406 12.0413L15.99 10.0019L18.0293 9.65256C18.1814 9.6263 18.3216 9.55363 18.4307 9.44453C18.5398 9.33543 18.6125 9.19523 18.6387 9.04319L18.9881 7.00381L21.0275 6.65444C21.1246 6.6379 21.2175 6.6024 21.3008 6.54996C21.3842 6.49753 21.4564 6.42918 21.5134 6.34883C21.5704 6.26848 21.6109 6.17769 21.6328 6.08166C21.6547 5.98562 21.6574 5.88622 21.6409 5.78913C21.6244 5.69203 21.5889 5.59914 21.5364 5.51577C21.484 5.43239 21.4156 5.36016 21.3353 5.30319C21.2549 5.24623 21.1642 5.20565 21.0681 5.18378C20.9721 5.1619 20.8727 5.15915 20.7756 5.17569L18.2162 5.61444C18.0642 5.6407 17.924 5.71337 17.8149 5.82247C17.7058 5.93157 17.6331 6.07177 17.6068 6.22381L17.2575 8.26319L15.2181 8.61256C15.066 8.63882 14.9259 8.71149 14.8168 8.8206C14.7076 8.9297 14.635 9.06989 14.6087 9.22194L14.2593 11.2613L12.1875 11.6188C11.9986 11.6463 11.8274 11.745 11.709 11.8946C11.5905 12.0442 11.5338 12.2335 11.5504 12.4236C11.5671 12.6137 11.6558 12.7903 11.7984 12.9171C11.941 13.0439 12.1267 13.1114 12.3175 13.1057H12.4475L15.0068 12.6669C15.1656 12.6444 15.3129 12.5715 15.4271 12.4588C15.5412 12.3461 15.616 12.1998 15.6406 12.0413Z" fill="black"/>
<path d="M23.8876 12.8942L21.7264 12.0817C21.5588 12.0178 21.3739 12.0164 21.2054 12.0775C21.0368 12.1387 20.8959 12.2584 20.8082 12.4148L19.9957 13.8692L18.4357 13.2842C18.2682 13.2203 18.0833 13.2189 17.9147 13.28C17.7462 13.3412 17.6053 13.4609 17.5176 13.6173L16.7051 15.0635L15.1451 14.4785C15.0528 14.4444 14.9547 14.4288 14.8564 14.4325C14.758 14.4363 14.6614 14.4594 14.572 14.5005C14.4826 14.5417 14.4022 14.6 14.3353 14.6722C14.2684 14.7444 14.2164 14.8291 14.1823 14.9213C14.1481 15.0136 14.1325 15.1118 14.1363 15.2101C14.1401 15.3084 14.1632 15.4051 14.2043 15.4945C14.2454 15.5839 14.3037 15.6643 14.3759 15.7312C14.4481 15.798 14.5328 15.85 14.6251 15.8842L16.7864 16.6967C16.9539 16.7605 17.1388 16.7619 17.3073 16.7008C17.4759 16.6396 17.6168 16.5199 17.7045 16.3635L18.517 14.9092L20.077 15.4942C20.2445 15.558 20.4294 15.5594 20.598 15.4983C20.7665 15.4371 20.9075 15.3174 20.9951 15.161L21.8076 13.7067L23.3676 14.2917C23.4599 14.3263 23.5581 14.3425 23.6567 14.3392C23.7552 14.3359 23.8521 14.3133 23.9419 14.2725C24.0317 14.2318 24.1126 14.1738 24.1799 14.1018C24.2473 14.0298 24.2998 13.9452 24.3345 13.8529C24.3692 13.7606 24.3853 13.6624 24.382 13.5639C24.3788 13.4653 24.3561 13.3684 24.3154 13.2786C24.2746 13.1888 24.2166 13.1079 24.1446 13.0406C24.0726 12.9732 23.988 12.9207 23.8957 12.886L23.8876 12.8942Z" fill="black"/>
<path d="M11.8137 8.93735L11.2449 7.36923L12.6993 6.55673C12.8553 6.47062 12.9754 6.33161 13.038 6.16475C13.1006 5.9979 13.1015 5.81419 13.0406 5.64673L12.4799 4.06235L13.9343 3.24985C14.1089 3.15396 14.2382 2.99265 14.2938 2.80143C14.3494 2.6102 14.3268 2.40471 14.2309 2.23016C14.135 2.05562 13.9737 1.92631 13.7825 1.8707C13.5912 1.81508 13.3857 1.83771 13.2112 1.9336L11.1962 3.0711C11.0402 3.15721 10.9201 3.29622 10.8575 3.46307C10.7949 3.62992 10.794 3.81364 10.8549 3.9811L11.4237 5.5411L9.96931 6.3536C9.8133 6.43971 9.69318 6.57872 9.63061 6.74557C9.56804 6.91242 9.56714 7.09614 9.62806 7.2636L10.1968 8.83173L8.73431 9.64423C8.64789 9.69171 8.57166 9.75575 8.50998 9.83269C8.4483 9.90963 8.40239 9.99796 8.37485 10.0927C8.31923 10.2839 8.34186 10.4894 8.43775 10.6639C8.53364 10.8385 8.69495 10.9678 8.88617 11.0234C9.0774 11.079 9.28289 11.0564 9.45744 10.9605L11.4806 9.84735C11.6351 9.75995 11.7535 9.62038 11.8146 9.45364C11.8756 9.2869 11.8753 9.10388 11.8137 8.93735Z" fill="black"/>
<path d="M6.13434 7.85681C6.03985 7.88392 5.95164 7.92941 5.87476 7.99066C5.79787 8.05191 5.73382 8.12772 5.68627 8.21376C5.63873 8.29979 5.60862 8.39436 5.59767 8.49205C5.58672 8.58974 5.59515 8.68863 5.62247 8.78306L5.93122 9.84743C5.97673 10.0019 6.07091 10.1376 6.19975 10.2342C6.32858 10.3308 6.48517 10.3832 6.64622 10.3837C6.71627 10.3938 6.78741 10.3938 6.85747 10.3837C6.95195 10.3566 7.04017 10.3111 7.11705 10.2498C7.19394 10.1886 7.25799 10.1128 7.30553 10.0267C7.35308 9.9407 7.38319 9.84613 7.39414 9.74844C7.40509 9.65075 7.39666 9.55186 7.36934 9.45744L7.06059 8.39306C7.0361 8.29637 6.99251 8.20557 6.93239 8.12599C6.87226 8.04641 6.79682 7.97967 6.7105 7.9297C6.62418 7.87972 6.52874 7.84753 6.42979 7.83501C6.33084 7.82249 6.23038 7.82991 6.13434 7.85681Z" fill="black"/>
<path d="M11.9113 15.6408C12.0657 15.6403 12.2161 15.592 12.342 15.5026L12.7807 15.1939C12.8613 15.1368 12.9298 15.0644 12.9824 14.9808C13.0349 14.8973 13.0706 14.8042 13.0872 14.7068C13.1038 14.6095 13.101 14.5099 13.0791 14.4136C13.0572 14.3173 13.0165 14.2263 12.9595 14.1458C12.9024 14.0652 12.83 13.9967 12.7464 13.9441C12.6628 13.8915 12.5697 13.8559 12.4724 13.8393C12.3751 13.8227 12.2754 13.8254 12.1792 13.8474C12.0829 13.8693 11.9919 13.9099 11.9113 13.967L11.4726 14.2758C11.3399 14.3662 11.2399 14.497 11.1874 14.6487C11.1348 14.8005 11.1326 14.9651 11.1809 15.1182C11.2292 15.2713 11.3255 15.4048 11.4556 15.499C11.5857 15.5931 11.7426 15.6428 11.9032 15.6408H11.9113Z" fill="black"/>
<path d="M8.81567 11.7976C8.67575 11.9378 8.59717 12.1277 8.59717 12.3257C8.59717 12.5238 8.67575 12.7137 8.81567 12.8539L9.12442 13.1626C9.19268 13.2367 9.27521 13.2962 9.36705 13.3375C9.45889 13.3789 9.55814 13.4013 9.65884 13.4033C9.75954 13.4054 9.85962 13.387 9.95306 13.3494C10.0465 13.3119 10.1314 13.2558 10.2026 13.1845C10.2738 13.1133 10.3299 13.0284 10.3675 12.935C10.4051 12.8415 10.4234 12.7415 10.4214 12.6408C10.4193 12.5401 10.397 12.4408 10.3556 12.349C10.3142 12.2571 10.2547 12.1746 10.1807 12.1064L9.87192 11.7976C9.73177 11.6577 9.54183 11.5791 9.34379 11.5791C9.14576 11.5791 8.95582 11.6577 8.81567 11.7976Z" fill="black"/>
<path d="M17.0625 19.3782H17.1925C17.2912 19.3841 17.3901 19.3705 17.4835 19.3381C17.5769 19.3058 17.6631 19.2553 17.737 19.1897C17.8109 19.1241 17.8712 19.0445 17.9144 18.9556C17.9576 18.8666 17.9829 18.77 17.9887 18.6714C17.9946 18.5727 17.981 18.4738 17.9486 18.3803C17.9163 18.2869 17.8658 18.2008 17.8002 18.1268C17.7346 18.0529 17.655 17.9926 17.5661 17.9494C17.4771 17.9062 17.3806 17.881 17.2819 17.8751L15.4375 17.5907C15.3404 17.5742 15.241 17.5769 15.145 17.5988C15.0489 17.6207 14.9581 17.6613 14.8778 17.7182C14.7974 17.7752 14.7291 17.8474 14.6766 17.9308C14.6242 18.0142 14.5887 18.1071 14.5722 18.2042C14.5556 18.3013 14.5584 18.4007 14.5803 18.4967C14.6021 18.5927 14.6427 18.6835 14.6997 18.7639C14.7566 18.8442 14.8289 18.9126 14.9123 18.965C14.9956 19.0174 15.0885 19.0529 15.1856 19.0695L17.0625 19.3782Z" fill="black"/>
</svg>
