<svg width="30" height="30" viewBox="0 0 30 30" fill="none" xmlns="http://www.w3.org/2000/svg">
<path d="M2.97658 4.51886L3.23908 10.7345C3.24225 10.8174 3.26736 10.8979 3.31183 10.9679C3.3563 11.0379 3.41854 11.0948 3.4922 11.1329C3.55892 11.1671 3.63286 11.1848 3.70783 11.1845C3.79765 11.1843 3.88551 11.1582 3.96095 11.1095L9.0797 7.86105C9.67033 8.0798 10.2844 8.29073 10.9219 8.49386L12.6563 14.222C12.6804 14.3004 12.7247 14.3711 12.7848 14.4271C12.8448 14.483 12.9185 14.5222 12.9985 14.5407C13.0342 14.5456 13.0705 14.5456 13.1063 14.5407C13.1705 14.5405 13.2341 14.5271 13.2929 14.5013C13.3518 14.4755 13.4047 14.4379 13.4485 14.3907L17.5406 10.0173C18.2016 10.1204 18.8485 10.2001 19.4719 10.2657L22.636 15.422C22.6776 15.4904 22.7361 15.547 22.8059 15.5864C22.8756 15.6258 22.9543 15.6467 23.0344 15.647C23.1163 15.6447 23.1962 15.621 23.2661 15.5783C23.336 15.5355 23.3935 15.4751 23.4328 15.4032L26.4375 9.96573C26.9523 9.82556 27.4316 9.57793 27.8438 9.23917C27.9369 9.15705 27.9937 9.04134 28.0016 8.91743C28.0095 8.79351 27.9679 8.67152 27.886 8.57823C27.8449 8.53176 27.795 8.49388 27.7393 8.46681C27.6835 8.43974 27.6229 8.424 27.561 8.42052C27.4991 8.41703 27.4371 8.42586 27.3786 8.44649C27.3201 8.46713 27.2663 8.49916 27.2203 8.54073C25.9688 9.65636 21.0563 10.0126 14.4281 8.47511C7.80002 6.93761 3.53908 4.44855 2.90627 2.89698C2.88311 2.83955 2.8488 2.78728 2.80533 2.74318C2.76186 2.69908 2.71008 2.66403 2.65298 2.64006C2.59588 2.61609 2.53461 2.60367 2.47268 2.60352C2.41076 2.60336 2.34942 2.61548 2.2922 2.63917C2.17821 2.68687 2.08766 2.77766 2.04026 2.89177C1.99285 3.00589 1.99243 3.13412 2.03908 3.24855C2.25936 3.73285 2.57873 4.1656 2.97658 4.51886ZM4.14377 9.88605L3.95158 5.30636C5.21651 6.16552 6.57333 6.88088 7.99689 7.43917L4.14377 9.88605ZM25.2375 10.2423L23.0438 14.2689L20.6672 10.3782C21.3047 10.4204 21.9188 10.4439 22.5 10.4439C23.4102 10.4494 24.3193 10.382 25.2188 10.2423H25.2375ZM16.4391 9.84386L13.3313 13.172L12 8.8173C12.7172 9.01886 13.4531 9.21105 14.2078 9.38917C14.9625 9.5673 15.7125 9.7173 16.4391 9.84386Z" fill="black"/>
<path d="M28.0642 13.6827C27.9572 13.6193 27.8295 13.601 27.7091 13.6318C27.5887 13.6625 27.4854 13.7399 27.422 13.8468C26.5595 15.2858 21.9845 17.128 15.197 17.6296C8.40947 18.1312 3.60947 17.0671 2.54072 15.7546C2.46116 15.6589 2.34683 15.5987 2.22288 15.5872C2.09893 15.5758 1.97551 15.6141 1.87979 15.6937C1.78406 15.7732 1.72386 15.8876 1.71243 16.0115C1.701 16.1355 1.73928 16.2589 1.81885 16.3546C2.17577 16.7525 2.61157 17.0717 3.09854 17.2921L5.21729 23.1468C5.24577 23.2241 5.29414 23.2925 5.3575 23.3452C5.42087 23.3979 5.497 23.4329 5.57822 23.4468H5.65791C5.72678 23.4469 5.79482 23.4318 5.8572 23.4027C5.91959 23.3735 5.97478 23.3309 6.01885 23.278L9.92354 18.6421C10.5376 18.6702 11.1704 18.689 11.8267 18.689H11.8735L15.2626 23.6249C15.3057 23.687 15.3631 23.7378 15.4301 23.7729C15.497 23.8079 15.5714 23.8263 15.647 23.8265H15.6845C15.7663 23.8195 15.8449 23.7912 15.9124 23.7443C15.9799 23.6974 16.0338 23.6336 16.0688 23.5593L18.6563 18.1593C19.322 18.0562 19.9595 17.939 20.5782 17.8124L25.1485 21.7968C25.2347 21.8704 25.3446 21.9104 25.4579 21.9093C25.5089 21.911 25.5598 21.9031 25.6079 21.8858C25.6864 21.8591 25.7563 21.8121 25.8107 21.7495C25.865 21.6869 25.9018 21.611 25.9173 21.5296L27.1079 15.4358C27.5551 15.1447 27.938 14.765 28.2329 14.3202C28.2944 14.2132 28.3112 14.0861 28.2796 13.9668C28.248 13.8474 28.1706 13.7453 28.0642 13.6827ZM5.82197 22.0687L4.26104 17.7608C5.72445 18.1991 7.23223 18.4727 8.75635 18.5765L5.82197 22.0687ZM15.572 22.439L12.9892 18.689C13.7345 18.689 14.4938 18.6374 15.272 18.5765C16.0501 18.5155 16.8001 18.4358 17.5407 18.3421L15.572 22.439ZM25.1485 20.564L21.7079 17.5687C23.1982 17.2304 24.6462 16.7273 26.0251 16.0687L25.1485 20.564Z" fill="black"/>
</svg>
