<svg width="24" height="24" viewBox="0 0 24 24" fill="none" xmlns="http://www.w3.org/2000/svg">
<path d="M9.35988 12.6201C9.2927 12.6204 9.22676 12.6382 9.16865 12.6719C9.11053 12.7056 9.06227 12.7539 9.02868 12.8121C8.95956 12.9302 7.33716 15.72 7.33716 18.0336C7.33716 21.0393 8.60436 21.4896 9.35988 21.4896C10.1154 21.4896 11.3826 21.0403 11.3826 18.0336C11.3826 15.72 9.7602 12.9302 9.69108 12.8121C9.65749 12.7539 9.60923 12.7056 9.55111 12.6719C9.49299 12.6382 9.42705 12.6204 9.35988 12.6201ZM9.35988 20.7177C8.26836 20.7177 8.10516 19.0348 8.10516 18.0297C8.10516 16.5379 8.89524 14.7446 9.35988 13.8182C9.82452 14.7436 10.6146 16.536 10.6146 18.0297C10.6146 19.0348 10.4514 20.7177 9.35988 20.7177Z" fill="black"/>
<path d="M15.2458 10.7518C15.5028 10.6301 15.717 10.4335 15.8603 10.1878C16.0035 9.94205 16.069 9.65875 16.0483 9.37511C16.0275 9.09146 15.9214 8.82073 15.7439 8.59851C15.5664 8.37629 15.3258 8.21297 15.0538 8.13003V5.54187C15.0581 5.14571 15.1984 4.76306 15.4512 4.45803C15.7456 4.09927 15.9079 3.65026 15.9107 3.18617C15.9136 2.72208 15.757 2.27109 15.467 1.90871C15.1771 1.54633 14.7714 1.29457 14.318 1.19557C13.8646 1.09657 13.3909 1.15635 12.9763 1.36491C12.1123 1.79787 11.7139 2.76939 12.0038 3.72939C12.0257 3.80178 12.0328 3.87784 12.0248 3.95304C12.0167 4.02824 11.9936 4.10105 11.9568 4.16715L11.808 4.41579C11.7828 4.45991 11.7665 4.50857 11.7601 4.55898C11.7537 4.6094 11.7573 4.66058 11.7707 4.70961C11.784 4.75864 11.8069 4.80455 11.838 4.84473C11.8692 4.88491 11.9079 4.91857 11.952 4.94379C11.9961 4.969 12.0448 4.98528 12.0952 4.99168C12.1456 4.99809 12.1968 4.99451 12.2458 4.98114C12.2949 4.96777 12.3408 4.94487 12.381 4.91375C12.4211 4.88264 12.4548 4.84391 12.48 4.79979L12.624 4.54827C12.7122 4.39164 12.7678 4.21883 12.7876 4.04018C12.8074 3.86153 12.791 3.68072 12.7392 3.50859C12.5597 2.91243 12.7978 2.31435 13.32 2.05323C13.5926 1.91993 13.9038 1.88838 14.1975 1.96424C14.4913 2.0401 14.7483 2.21839 14.9222 2.46699C15.0762 2.69117 15.1531 2.95932 15.1413 3.23101C15.1295 3.50271 15.0297 3.76321 14.857 3.97323C14.4922 4.41505 14.2905 4.96892 14.2858 5.54187V8.11179C14.0044 8.18324 13.7519 8.3399 13.563 8.56034C13.3741 8.78078 13.2579 9.05421 13.2304 9.34322C13.2029 9.63223 13.2653 9.92268 13.4092 10.1748C13.5531 10.427 13.7714 10.6285 14.0342 10.7518C13.5542 11.5198 12.6058 13.1575 12 14.9758C11.975 14.8999 11.9491 14.8241 11.9222 14.7492L11.8416 14.5246C11.8138 14.4497 11.7859 14.3758 11.7571 14.3019C11.7005 14.155 11.6419 14.0091 11.5824 13.866C11.5526 13.794 11.5219 13.723 11.4922 13.6529C11.4282 13.5121 11.3664 13.3739 11.3069 13.2382C11.0582 12.6958 10.801 12.1995 10.5667 11.7761L10.4794 11.6206C10.3507 11.3921 10.2307 11.1876 10.1251 11.0119L10.056 10.8987C10.0243 10.8459 9.99456 10.8027 9.96576 10.7518C10.2228 10.6301 10.437 10.4335 10.5803 10.1878C10.7235 9.94205 10.789 9.65875 10.7683 9.37511C10.7475 9.09146 10.6414 8.82073 10.4639 8.59851C10.2864 8.37629 10.0458 8.21297 9.77376 8.13003V5.54187C9.77808 5.14571 9.91839 4.76306 10.1712 4.45803C10.4667 4.09916 10.6296 3.64956 10.6328 3.18472C10.6359 2.71988 10.479 2.26813 10.1883 1.90533C9.89772 1.54253 9.4911 1.29079 9.03679 1.19238C8.58248 1.09397 8.10814 1.15489 7.69344 1.36491C6.83136 1.79787 6.432 2.76939 6.72 3.72939C6.74189 3.80178 6.749 3.87784 6.74092 3.95304C6.73284 4.02824 6.70973 4.10105 6.67296 4.16715L6.528 4.41579C6.47708 4.5049 6.46364 4.61059 6.49065 4.70961C6.51766 4.80863 6.58289 4.89286 6.672 4.94379C6.76111 4.99471 6.86681 5.00814 6.96583 4.98114C7.06484 4.95413 7.14908 4.8889 7.2 4.79979L7.344 4.54827C7.43219 4.39164 7.48785 4.21883 7.50764 4.04018C7.52744 3.86153 7.51096 3.68072 7.4592 3.50859C7.27968 2.91243 7.51776 2.31435 8.0352 2.05323C8.30776 1.91993 8.61896 1.88838 8.91273 1.96424C9.20649 2.0401 9.4635 2.21839 9.63744 2.46699C9.79139 2.69117 9.86827 2.95932 9.8565 3.23101C9.84472 3.50271 9.74493 3.76321 9.57216 3.97323C9.20563 4.4144 9.00223 4.96834 8.99616 5.54187V8.11179C8.71532 8.18446 8.46377 8.34208 8.2759 8.56311C8.08803 8.78415 7.97299 9.05781 7.94652 9.34669C7.92005 9.63557 7.98343 9.92557 8.128 10.1771C8.27258 10.4286 8.49129 10.6293 8.75424 10.7518C8.02272 11.9239 6.16992 15.1678 6.16992 17.9383C6.16992 22.3678 8.40096 22.8478 9.36 22.8478C9.47906 22.8478 9.59801 22.8404 9.71616 22.8257C9.7536 22.8257 9.79104 22.8161 9.8304 22.8094L9.86592 22.8036L9.9168 22.794L10.0128 22.7739C10.2381 22.7225 10.4559 22.6425 10.6608 22.5358C10.705 22.5127 10.7482 22.4887 10.7923 22.4619C10.8365 22.435 10.8806 22.4081 10.9258 22.3774L10.9776 22.3419C11.0275 22.3054 11.0774 22.267 11.1274 22.2267C11.1917 22.1739 11.2541 22.1163 11.3194 22.0539L11.3366 22.0366C11.3654 22.0078 11.3942 21.9771 11.423 21.9454C11.4309 21.9375 11.4383 21.9292 11.4451 21.9204L11.5066 21.8494C11.5267 21.8254 11.5459 21.8004 11.5661 21.7755C11.5862 21.7505 11.6064 21.7236 11.6256 21.6967V21.691L11.6794 21.6142C11.8018 21.4341 11.9087 21.244 11.999 21.0459C12.7219 22.6231 13.9805 22.8487 14.639 22.8487C15.599 22.8487 17.8291 22.3687 17.8291 17.9345C17.8301 15.1678 15.9773 11.9201 15.2458 10.7518ZM14.2858 8.94507V9.40779C14.2858 9.50963 14.3262 9.6073 14.3982 9.67932C14.4702 9.75133 14.5679 9.79179 14.6698 9.79179C14.7716 9.79179 14.8693 9.75133 14.9413 9.67932C15.0133 9.6073 15.0538 9.50963 15.0538 9.40779V8.98059C15.1578 9.06682 15.2321 9.18363 15.266 9.31446C15.2999 9.44528 15.2917 9.58346 15.2427 9.70939C15.1936 9.83531 15.1061 9.94258 14.9926 10.016C14.8791 10.0894 14.7454 10.1251 14.6105 10.1182C14.4755 10.1113 14.3461 10.062 14.2407 9.97743C14.1353 9.89283 14.0593 9.77718 14.0233 9.6469C13.9874 9.51662 13.9934 9.37832 14.0405 9.25165C14.0876 9.12498 14.1734 9.01637 14.2858 8.94123V8.94507ZM9.00576 8.94507V9.40779C9.00576 9.50963 9.04622 9.6073 9.11823 9.67932C9.19025 9.75133 9.28792 9.79179 9.38976 9.79179C9.49161 9.79179 9.58928 9.75133 9.66129 9.67932C9.73331 9.6073 9.77376 9.50963 9.77376 9.40779V8.98059C9.87783 9.06682 9.95208 9.18363 9.98599 9.31446C10.0199 9.44528 10.0117 9.58346 9.96268 9.70939C9.9136 9.83531 9.82612 9.94258 9.71263 10.016C9.59914 10.0894 9.46542 10.1251 9.33045 10.1182C9.19548 10.1113 9.06612 10.062 8.96073 9.97743C8.85534 9.89283 8.77927 9.77718 8.74333 9.6469C8.70739 9.51662 8.7134 9.37832 8.76051 9.25165C8.80762 9.12498 8.89343 9.01637 9.00576 8.94123V8.94507ZM11.5459 20.0571C11.5344 20.1012 11.5219 20.1444 11.5094 20.1867C11.497 20.2289 11.4826 20.275 11.4682 20.3182C11.4538 20.3614 11.4442 20.3902 11.4317 20.4247C11.4297 20.4294 11.428 20.4342 11.4269 20.4391C11.3636 20.6139 11.2872 20.7837 11.1984 20.947L11.1782 20.9835C11.16 21.0151 11.1418 21.0468 11.1226 21.0795C11.1034 21.1102 11.0842 21.1409 11.063 21.1697C11.0419 21.1985 11.0208 21.2321 10.9987 21.2657C10.9766 21.2993 10.9574 21.3195 10.9363 21.3454C10.7908 21.5284 10.6147 21.6849 10.416 21.8081C10.3882 21.8254 10.3603 21.8407 10.3325 21.8561L10.2614 21.8926C10.2307 21.9079 10.2 21.9214 10.1654 21.9348L10.104 21.9588L10.0579 21.9761L9.98208 22.0011L9.95232 22.0097L9.87936 22.0289L9.77664 22.051C9.74688 22.0567 9.71712 22.0615 9.6864 22.0654H9.66816L9.57216 22.0759L9.48096 22.0827C9.44064 22.0827 9.40032 22.0827 9.36 22.0827C7.79808 22.0827 6.93792 20.61 6.93792 17.9364C6.93792 15.45 8.63904 12.4116 9.36 11.2347C9.41472 11.323 9.47424 11.4267 9.53856 11.5313L9.58656 11.6119L9.744 11.8855C9.77952 11.947 9.81504 12.0113 9.85152 12.0775L9.9696 12.2926L10.127 12.5883C10.1539 12.6391 10.1808 12.691 10.2067 12.7428C10.2326 12.7947 10.2614 12.8484 10.2883 12.9022C10.288 12.9044 10.288 12.9067 10.2883 12.9089C10.3411 13.0145 10.3939 13.122 10.4467 13.2324C10.4746 13.2881 10.5014 13.3457 10.5283 13.4033C10.5283 13.4119 10.536 13.4206 10.5408 13.4292C10.608 13.5719 10.6746 13.7182 10.7405 13.8679L10.7894 13.9812C10.8346 14.0859 10.8797 14.1934 10.9238 14.3019C11.0006 14.4881 11.0746 14.6782 11.1437 14.8702C11.1638 14.9249 11.183 14.9787 11.2022 15.0334C11.2301 15.1131 11.2579 15.1937 11.2848 15.2743C11.304 15.3339 11.3232 15.3934 11.3414 15.4529C11.377 15.5633 11.4106 15.6747 11.4374 15.787C11.447 15.8187 11.4557 15.8513 11.4643 15.883C11.4854 15.9569 11.5046 16.0318 11.5229 16.1057C11.551 16.2158 11.577 16.3262 11.6006 16.4369C11.499 16.9304 11.4459 17.4326 11.4422 17.9364C11.4393 18.5534 11.4949 19.1693 11.6083 19.7758C11.5882 19.8718 11.5661 19.9678 11.5421 20.0532L11.5459 20.0571ZM14.64 22.0798C13.488 22.0798 12.72 21.2763 12.3917 19.7758C12.2686 19.1683 12.2104 18.5495 12.2179 17.9297C12.223 17.4252 12.2813 16.9225 12.3917 16.4302C12.8438 14.3287 14.0592 12.1764 14.64 11.2289C15.3619 12.4049 17.0621 15.4414 17.0621 17.9307C17.0621 20.6081 16.2019 22.0798 14.64 22.0798Z" fill="black"/>
<path d="M14.976 12.8093C14.9421 12.7516 14.8937 12.7037 14.8356 12.6704C14.7775 12.6371 14.7117 12.6196 14.6448 12.6196C14.5778 12.6196 14.5121 12.6371 14.454 12.6704C14.3959 12.7037 14.3475 12.7516 14.3136 12.8093C14.2445 12.9274 12.6221 15.7171 12.6221 18.0307C12.6221 21.0365 13.8893 21.4867 14.6448 21.4867C15.4003 21.4867 16.6675 21.0375 16.6675 18.0307C16.6627 15.7171 15.0403 12.9274 14.976 12.8093ZM14.6448 20.7178C13.5533 20.7178 13.3901 19.0349 13.3901 18.0298C13.3901 16.5379 14.1802 14.7447 14.6448 13.8183C15.1094 14.7437 15.8995 16.536 15.8995 18.0298C15.8947 19.0349 15.7315 20.7178 14.64 20.7178H14.6448Z" fill="black"/>
</svg>
