<?xml version="1.0" encoding="UTF-8" standalone="no"?>
<!-- Uploaded to: SVG Repo, www.svgrepo.com, Transformed by: SVG Repo Mixer Tools -->

<svg
   width="44"
   height="24"
   viewBox="0 0 44 24"
   fill="none"
   stroke="#ffffff"
   version="1.1"
   id="svg7"

   xmlns="http://www.w3.org/2000/svg">
  <defs
     id="defs11" />
  <path
     d="m 5.5,13 5,5 5,-5 m -10,-7 5,5 5,-5"
     stroke="#1e1e1e"
     stroke-width="2.5"
     stroke-linecap="round"
     stroke-linejoin="round"
     fill=""
     id="path2" />
  <path
     d="m 38.639827,7.7999977 v -0.174996 c 0,-2.2229523 -1.80204,-4.0250044 -4.025039,-4.0250044 h -6.174959 c -2.319602,0 -4.200002,1.8804001 -4.200002,4.2000004 0,2.3196003 1.8804,4.2000003 4.200002,4.2000003 h 5.999999 c 2.319599,0 4.199999,1.8804 4.199999,4.2 0,2.319601 -1.8804,4.199999 -4.199999,4.199999 h -6.087504 c -2.271264,0 -4.112497,-1.841279 -4.112497,-4.112519 v -0.08748 M 31.439827,1.2 V 5.3971051 22.799997"
     stroke="#000000"
     stroke-width="2.4"
     stroke-linecap="round"
     stroke-linejoin="round"
     id="path4"
     style="stroke:#1f1f1f;stroke-opacity:1" />
</svg>
