<svg width="24" height="24" viewBox="0 0 24 24" fill="none" xmlns="http://www.w3.org/2000/svg">
<g clip-path="url(#clip0_2662_2070)">
<path d="M23.1701 10.2601L12.6701 0.76008C12.4863 0.59424 12.2476 0.502441 12.0001 0.502441C11.7525 0.502441 11.5138 0.59424 11.3301 0.76008L0.83007 10.2601C0.631158 10.4378 0.510981 10.6872 0.495978 10.9535C0.480976 11.2198 0.572375 11.4812 0.75007 11.6801C0.927765 11.879 1.1772 11.9992 1.4435 12.0142C1.7098 12.0292 1.97116 11.9378 2.17007 11.7601L12.0001 2.85008L21.8301 11.7401C22.029 11.9184 22.2906 12.0105 22.5574 11.9959C22.8241 11.9814 23.0742 11.8615 23.2526 11.6626C23.4309 11.4637 23.523 11.202 23.5084 10.9353C23.4939 10.6685 23.374 10.4184 23.1751 10.2401L23.1701 10.2601Z" fill="black"/>
<path d="M21 13C20.7348 13 20.4804 13.1054 20.2929 13.2929C20.1054 13.4804 20 13.7348 20 14V21.5H16V16C16 15.7348 15.8946 15.4804 15.7071 15.2929C15.5196 15.1054 15.2652 15 15 15H9C8.73478 15 8.48043 15.1054 8.29289 15.2929C8.10536 15.4804 8 15.7348 8 16V21.5H4V14C4 13.7348 3.89464 13.4804 3.70711 13.2929C3.51957 13.1054 3.26522 13 3 13C2.73478 13 2.48043 13.1054 2.29289 13.2929C2.10536 13.4804 2 13.7348 2 14V22.5C2 22.7652 2.10536 23.0196 2.29289 23.2071C2.48043 23.3946 2.73478 23.5 3 23.5H21C21.2652 23.5 21.5196 23.3946 21.7071 23.2071C21.8946 23.0196 22 22.7652 22 22.5V14C22 13.7348 21.8946 13.4804 21.7071 13.2929C21.5196 13.1054 21.2652 13 21 13ZM10 21.5V17H14V21.5H10Z" fill="black"/>
</g>
<defs>
<clipPath id="clip0_2662_2070">
<rect width="24" height="24" fill="white"/>
</clipPath>
</defs>
</svg>
