<svg width="24" height="25" viewBox="0 0 24 25" fill="none" xmlns="http://www.w3.org/2000/svg">
<path d="M17.5 6.85254H17.51M7 2.35254H17C19.7614 2.35254 22 4.59112 22 7.35254V17.3525C22 20.114 19.7614 22.3525 17 22.3525H7C4.23858 22.3525 2 20.114 2 17.3525V7.35254C2 4.59112 4.23858 2.35254 7 2.35254ZM16 11.7225C16.1234 12.5548 15.9813 13.4048 15.5938 14.1516C15.2063 14.8984 14.5931 15.504 13.8416 15.8822C13.0901 16.2605 12.2384 16.3921 11.4078 16.2585C10.5771 16.1248 9.80976 15.7326 9.21484 15.1377C8.61992 14.5428 8.22773 13.7754 8.09407 12.9448C7.9604 12.1141 8.09207 11.2624 8.47033 10.5109C8.84859 9.75939 9.45419 9.14628 10.201 8.75878C10.9478 8.37128 11.7978 8.22913 12.63 8.35254C13.4789 8.47842 14.2649 8.874 14.8717 9.48085C15.4785 10.0877 15.8741 10.8736 16 11.7225Z" stroke="#1E1E1E" stroke-width="4" stroke-linecap="round" stroke-linejoin="round"/>
</svg>
