<svg width="22" height="30" viewBox="0 0 22 30" fill="none" xmlns="http://www.w3.org/2000/svg">
<path d="M13.3887 8.74268H17.2949L20.4077 2.24365C19.0454 1.12305 17.251 0.57373 15.398 0.57373C13.5156 0.57373 11.5747 1.14258 9.96828 2.25586L13.3887 8.74268ZM8.29592 6.35986C8.41799 6.39404 8.50588 6.50391 8.50588 6.63574V29.3018C8.50588 29.4946 8.42775 29.668 8.3008 29.7949C8.17385 29.9219 8.00051 30 7.80763 30H6.00344C5.81301 30 5.63722 29.9219 5.51027 29.7949C5.38332 29.668 5.30519 29.4946 5.30519 29.3042V6.63574C5.30519 6.50391 5.39553 6.3916 5.51515 6.35986L5.5176 4.19434C5.64211 2.50488 8.29836 2.85645 8.28859 4.26025L8.29592 6.35986ZM2.53664 6.45264C2.57814 6.50146 2.605 6.56738 2.605 6.63818V29.3042C2.605 29.4971 2.52687 29.6704 2.39992 29.7974C2.27297 29.9243 2.09963 30.0024 1.90676 30.0024H0.927752C0.734881 30.0024 0.561541 29.9243 0.434588 29.7974C0.307635 29.6704 0.22951 29.4971 0.22951 29.3042V6.63574C0.22951 6.54297 0.273455 6.45996 0.341815 6.40869C-0.39549 5.78125 0.104998 4.64355 1.41847 3.55469C2.51467 4.35791 3.28127 5.76416 2.53664 6.45264ZM5.87648 10.0269H7.92971H7.93215V6.92383H5.87648V10.0269ZM7.92971 10.5981H5.87648V29.3018C5.87648 29.3359 5.89113 29.3677 5.9131 29.3896C5.93508 29.4116 5.96681 29.4263 6.00099 29.4263H7.80519C7.83937 29.4263 7.87111 29.4116 7.89308 29.3896C7.91506 29.3677 7.92971 29.3359 7.92971 29.3018V10.5981ZM0.800799 10.0269H2.03127V6.92383H0.800799V10.0269ZM2.03127 10.5981H0.800799V29.3018C0.800799 29.3359 0.815448 29.3677 0.83742 29.3896C0.859393 29.4116 0.891131 29.4263 0.925311 29.4263H1.90431C1.93849 29.4263 1.97023 29.4116 1.99221 29.3896C2.01418 29.3677 2.02883 29.3359 2.02883 29.3018V10.5981H2.03127ZM13.4424 13.5034H17.1826V9.4873H13.4424V13.5034ZM17.1826 14.0747H13.4424V29.3018C13.4424 29.3335 13.4522 29.3604 13.4717 29.3823L13.4815 29.3896C13.5034 29.4116 13.5352 29.4263 13.5694 29.4263H17.0581C17.0923 29.4263 17.124 29.4116 17.146 29.3896C17.168 29.3677 17.1826 29.3359 17.1826 29.3018V14.0747ZM17.7564 9.10156V29.3018C17.7564 29.4922 17.6782 29.668 17.5513 29.7949C17.4243 29.9219 17.251 30 17.0606 30H13.5669C13.374 30 13.2007 29.9219 13.0737 29.7949C13.0664 29.7876 13.0615 29.7803 13.0542 29.7729C12.9395 29.6484 12.8687 29.4824 12.8687 29.2993V9.02832C12.8687 9.01367 12.8687 9.00146 12.8711 8.98682L9.34816 2.30225C9.2798 2.17285 9.32131 2.0166 9.43605 1.93604C11.1792 0.654297 13.3228 0 15.398 0C17.4585 0 19.458 0.64209 20.9497 1.95312C21.0547 2.0459 21.0767 2.19727 21.0083 2.31201L17.7564 9.10156Z" fill="black"/>
</svg>
