<svg width="27" height="27" viewBox="0 0 27 27" fill="none" xmlns="http://www.w3.org/2000/svg">
<path d="M26.0204 10.2947C25.7028 9.65964 24.9295 8.72399 23.8934 8.80121C23.7428 8.33117 23.5115 7.89097 23.2098 7.50035C23.3686 7.39832 23.5162 7.27975 23.6501 7.14664L25.1617 5.63475C25.2429 5.5536 25.2965 5.44896 25.3149 5.33567C25.3333 5.22237 25.3156 5.10616 25.2643 5.00349C24.9471 4.36824 24.173 3.43242 23.1372 3.50992C22.9321 2.88563 22.5909 2.31464 22.1385 1.83812C22.0879 1.78628 22.0276 1.74499 21.961 1.71665C21.8943 1.68831 21.8227 1.67348 21.7503 1.67302C21.6779 1.67256 21.6062 1.68649 21.5392 1.71398C21.4722 1.74147 21.4114 1.78199 21.3602 1.83319C21.309 1.88438 21.2685 1.94523 21.241 2.01221C21.2135 2.07919 21.1996 2.15095 21.2 2.22335C21.2005 2.29575 21.2153 2.36734 21.2436 2.43396C21.272 2.50058 21.3133 2.56091 21.3651 2.61146C21.3774 2.62371 22.5913 3.85767 22.0183 5.00349C21.9862 5.06773 21.967 5.13767 21.9619 5.20931C21.9568 5.28095 21.9659 5.35289 21.9886 5.42103C22.0113 5.48916 22.0473 5.55216 22.0943 5.60642C22.1414 5.66068 22.1987 5.70514 22.2629 5.73726C22.3271 5.76938 22.3971 5.78853 22.4687 5.79362C22.5404 5.79871 22.6123 5.78964 22.6804 5.76693C22.7486 5.74422 22.8116 5.70831 22.8658 5.66125C22.9201 5.61419 22.9645 5.55691 22.9967 5.49267C23.1351 5.21568 23.2213 4.91553 23.2508 4.60728C23.4208 4.63754 23.5824 4.70346 23.7251 4.8007C23.8677 4.89794 23.9882 5.02429 24.0784 5.17143L22.8768 6.37335C22.5767 6.66366 22.1746 6.82443 21.7571 6.82098C21.3396 6.81753 20.9402 6.65015 20.6449 6.35492C20.3497 6.05969 20.1823 5.66027 20.1789 5.24277C20.1754 4.82527 20.3362 4.42314 20.6265 4.12307C20.6787 4.07263 20.7204 4.01228 20.7491 3.94556C20.7777 3.87884 20.7928 3.80708 20.7934 3.73446C20.7941 3.66185 20.7802 3.58984 20.7527 3.52263C20.7252 3.45542 20.6846 3.39436 20.6333 3.34301C20.5819 3.29167 20.5209 3.25106 20.4537 3.22356C20.3865 3.19606 20.3144 3.18223 20.2418 3.18286C20.1692 3.18349 20.0975 3.19858 20.0307 3.22724C19.964 3.2559 19.9037 3.29756 19.8532 3.34979C19.7599 3.44774 19.6743 3.55268 19.597 3.6637C19.4011 3.3813 19.1392 3.15094 18.8341 2.99256C18.5291 2.83417 18.19 2.75254 17.8463 2.75474C17.6412 2.13017 17.3001 1.55891 16.8475 1.08217C16.7968 1.03131 16.7366 0.990932 16.6702 0.963344C16.6039 0.935756 16.5328 0.921499 16.461 0.921387C16.3892 0.921276 16.3181 0.935311 16.2517 0.962693C16.1853 0.990074 16.1249 1.03027 16.074 1.08097C16.0232 1.13168 15.9828 1.19191 15.9552 1.25822C15.9276 1.32453 15.9134 1.39562 15.9133 1.46745C15.9131 1.53927 15.9272 1.61041 15.9546 1.6768C15.9819 1.7432 16.0221 1.80355 16.0728 1.85442C16.0851 1.86667 17.2953 3.11223 16.7273 4.24776C16.6625 4.3775 16.6518 4.5277 16.6976 4.66531C16.7435 4.80292 16.8422 4.91668 16.9719 4.98156C17.1016 5.04643 17.2518 5.05712 17.3895 5.01125C17.5271 4.96539 17.6408 4.86673 17.7057 4.73699C17.8441 4.45999 17.9303 4.15982 17.9599 3.85155C18.1299 3.8817 18.2916 3.94758 18.4342 4.04484C18.5769 4.1421 18.6973 4.26852 18.7875 4.41576L17.5858 5.61735C17.2857 5.90731 16.8837 6.06778 16.4664 6.06419C16.0491 6.0606 15.6499 5.89323 15.3548 5.59815C15.0597 5.30307 14.8923 4.90388 14.8887 4.48658C14.8851 4.06928 15.0456 3.66726 15.3355 3.36713C15.4355 3.26406 15.491 3.1258 15.4899 2.9822C15.4888 2.83861 15.4313 2.7012 15.3297 2.59966C15.2282 2.49811 15.0908 2.44058 14.9472 2.43948C14.8036 2.43838 14.6653 2.49381 14.5623 2.59379C14.123 3.0347 13.8504 3.61438 13.7909 4.23391C13.7314 4.85344 13.8887 5.47441 14.236 5.99087C14.0696 6.19684 13.9255 6.41977 13.8059 6.65598C13.6091 6.56686 13.4001 6.50787 13.1857 6.48098C12.962 6.45771 12.7528 6.35934 12.5921 6.20193C12.4315 6.04451 12.3289 5.83732 12.301 5.61413C12.2913 5.4721 12.2266 5.33945 12.1206 5.24438C12.0147 5.14931 11.8758 5.09931 11.7336 5.10501C11.5913 5.1107 11.4569 5.17165 11.3589 5.27489C11.2608 5.37813 11.2069 5.51552 11.2086 5.65788C11.2086 5.67847 11.2097 5.69905 11.2121 5.71951C11.2625 6.19275 11.4736 6.6344 11.8103 6.97078C12.1469 7.30716 12.5887 7.51794 13.062 7.56795C13.2892 7.59327 13.5006 7.6965 13.6602 7.86009C13.6794 7.87934 13.6951 7.89908 13.7192 7.9279C13.8475 8.0784 13.9284 8.26348 13.9518 8.45985C14.0037 8.93336 14.2175 9.37441 14.5571 9.70847C14.8908 10.0469 15.3317 10.259 15.8044 10.3085C16.0329 10.334 16.2452 10.4388 16.4044 10.6046C16.5657 10.7622 16.6671 10.9711 16.6912 11.1953C16.7403 11.666 16.9508 12.1052 17.287 12.4383C17.6222 12.7771 18.0625 12.9919 18.5359 13.0477C18.7377 13.0717 18.9278 13.1557 19.0814 13.2888C19.1034 13.3062 19.1244 13.3247 19.1444 13.3443C19.3041 13.501 19.4053 13.7077 19.4312 13.9299C19.4706 14.2805 19.5971 14.6157 19.7992 14.9049C20.0013 15.1941 20.2726 15.4282 20.5882 15.5858L8.0976 20.5803L7.53322 20.016C8.0088 19.6828 8.39035 19.2325 8.64097 18.7087C8.67264 18.6436 8.69106 18.5728 8.69517 18.5005C8.69927 18.4282 8.68898 18.3558 8.6649 18.2875C8.64081 18.2193 8.6034 18.1565 8.55484 18.1027C8.50628 18.049 8.44754 18.0055 8.38202 17.9747C8.31651 17.9438 8.24552 17.9263 8.17319 17.9231C8.10085 17.92 8.0286 17.9312 7.96063 17.9561C7.89267 17.9811 7.83033 18.0193 7.77725 18.0686C7.72417 18.1178 7.68139 18.1771 7.6514 18.243C7.45575 18.6558 7.13632 18.9975 6.73752 19.2204L6.41973 18.9027L10.8086 7.92249C10.8624 7.78779 10.8606 7.63722 10.8034 7.50392C10.7462 7.37061 10.6384 7.26548 10.5037 7.21166C10.369 7.15783 10.2184 7.15972 10.0851 7.21691C9.95181 7.2741 9.84668 7.3819 9.79286 7.5166L5.458 18.3618C5.30757 18.3535 5.15706 18.3764 5.0159 18.429C4.87473 18.4816 4.74597 18.5629 4.63768 18.6676L3.95064 19.3547C3.8486 19.456 3.7677 19.5765 3.71264 19.7093C3.65758 19.8421 3.62946 19.9845 3.6299 20.1282C3.6299 20.1446 3.63395 20.1604 3.63466 20.1768L1.91534 20.8644C1.67259 20.9615 1.45772 21.1173 1.29 21.3178C1.12229 21.5184 1.00697 21.7574 0.954393 22.0135C0.901816 22.2696 0.913623 22.5347 0.988755 22.7851C1.06389 23.0355 1.19999 23.2634 1.38487 23.4482L3.55181 25.6152C3.73664 25.8 3.96446 25.9361 4.21484 26.0112C4.46522 26.0863 4.73033 26.0981 4.98639 26.0456C5.24245 25.993 5.48146 25.8777 5.68199 25.71C5.88251 25.5423 6.03827 25.3274 6.1353 25.0847L6.82322 23.3651C6.83962 23.3658 6.85526 23.3698 6.87178 23.3698C7.01547 23.3703 7.15783 23.3422 7.29057 23.2872C7.42332 23.2322 7.54381 23.1513 7.64506 23.0494L8.33243 22.3621C8.43432 22.2608 8.51511 22.1402 8.57011 22.0075C8.62511 21.8748 8.65323 21.7324 8.65284 21.5887C8.65284 21.5715 8.64874 21.5552 8.64792 21.538L21.6272 16.3482C21.8049 16.2775 21.9539 16.1494 22.0504 15.9843C22.1469 15.8192 22.1854 15.6265 22.1597 15.437C22.134 15.2475 22.0457 15.072 21.9087 14.9385C21.7718 14.805 21.5941 14.7212 21.404 14.7003L21.3848 14.6988C21.1621 14.6704 20.9559 14.5668 20.8002 14.405C20.6383 14.2449 20.5382 14.0326 20.5177 13.8058C20.491 13.5929 20.4322 13.3853 20.3432 13.19C20.5796 13.0717 20.8029 12.929 21.0095 12.7642C21.5257 13.1122 22.1468 13.2699 22.7665 13.2103C23.3862 13.1507 23.9658 12.8775 24.4062 12.4375L25.9179 10.9259C25.9991 10.8448 26.0527 10.7401 26.0711 10.6268C26.0895 10.5136 26.0718 10.3973 26.0204 10.2947ZM5.11986 24.6787C5.09002 24.7534 5.0421 24.8194 4.98042 24.871C4.91874 24.9226 4.84522 24.9581 4.76645 24.9743C4.68768 24.9904 4.60612 24.9868 4.5291 24.9637C4.45208 24.9406 4.382 24.8987 4.32514 24.8419L2.15821 22.6749C2.10133 22.618 2.05946 22.5479 2.03635 22.4709C2.01325 22.3938 2.00964 22.3122 2.02584 22.2334C2.04204 22.1546 2.07755 22.0811 2.12919 22.0194C2.18082 21.9577 2.24696 21.9098 2.32167 21.8799L4.18389 21.1349L4.68362 21.6347C4.48059 21.919 4.22326 22.1604 3.92647 22.3448C3.86331 22.38 3.80776 22.4274 3.76303 22.4842C3.7183 22.541 3.68529 22.6062 3.66589 22.6758C3.64649 22.7455 3.6411 22.8183 3.65003 22.89C3.65895 22.9618 3.68202 23.0311 3.71789 23.0938C3.75377 23.1566 3.80173 23.2117 3.85902 23.2558C3.91631 23.2999 3.98177 23.3322 4.05163 23.3509C4.12149 23.3695 4.19436 23.3742 4.26601 23.3645C4.33767 23.3548 4.40669 23.331 4.46908 23.2944C4.85164 23.0645 5.18829 22.7656 5.46199 22.413L5.86509 22.8161L5.11986 24.6787ZM6.87238 22.2768L4.72382 20.1282L5.41118 19.4409L7.55914 21.5888L6.87238 22.2768ZM15.9201 9.22093C15.6964 9.19676 15.4881 9.09577 15.3305 8.93519C15.1645 8.77487 15.0609 8.5608 15.0381 8.33117C14.9968 7.99837 14.8766 7.68027 14.6874 7.40339C14.759 7.16861 14.8744 6.94951 15.0275 6.7577C15.5418 7.08457 16.1522 7.22634 16.7578 7.15962C17.3635 7.0929 17.9284 6.82167 18.3592 6.39069L19.1064 5.6436C19.16 6.02722 19.2967 6.3945 19.5069 6.71985L16.7323 9.49442C16.4838 9.34727 16.207 9.25409 15.9201 9.22093ZM23.633 11.6645C23.3328 11.9545 22.9308 12.1149 22.5135 12.1113C22.0962 12.1077 21.697 11.9404 21.4019 11.6453C21.1068 11.3502 20.9395 10.951 20.9359 10.5337C20.9323 10.1164 21.0928 9.71438 21.3827 9.41425C21.4831 9.31126 21.5389 9.17286 21.538 9.02902C21.5371 8.88518 21.4796 8.7475 21.3779 8.64579C21.2761 8.54408 21.1385 8.48653 20.9946 8.48562C20.8508 8.48471 20.7124 8.5405 20.6094 8.64092C20.1798 9.07232 19.9095 9.63685 19.8427 10.242C19.776 10.8471 19.9168 11.457 20.2421 11.9717C20.0497 12.1241 19.8307 12.2396 19.5963 12.3123C19.3193 12.1233 19.0011 12.0034 18.6684 11.9623C18.4395 11.9374 18.2262 11.8341 18.0649 11.6698C17.9043 11.5122 17.8032 11.3037 17.7789 11.08C17.7459 10.793 17.653 10.5162 17.5063 10.2674L20.2801 7.49352C20.7175 7.77995 21.229 7.93236 21.7518 7.932C21.8741 7.92857 21.996 7.91688 22.1167 7.897L22.1197 7.90154C22.132 7.91385 23.3425 9.15936 22.7745 10.2949C22.7096 10.4247 22.6989 10.5749 22.7448 10.7125C22.7907 10.8501 22.8893 10.9638 23.0191 11.0287C23.1488 11.0936 23.299 11.1043 23.4366 11.0584C23.5742 11.0125 23.688 10.9139 23.7528 10.7841C23.8913 10.5071 23.9775 10.2069 24.007 9.89857C24.177 9.9288 24.3386 9.99476 24.4813 10.0921C24.6239 10.1894 24.7442 10.3159 24.8343 10.4632L23.633 11.6645Z" fill="black"/>
</svg>
