<svg width="15" height="24" viewBox="0 0 15 24" fill="none" xmlns="http://www.w3.org/2000/svg">
<g clip-path="url(#clip0_2662_2085)">
<path d="M9.57656 1.50049H4.5C2.01844 1.50049 0 3.51893 0 6.00049C0 6.82877 0.670781 7.4583 1.5 7.4583C2.32922 7.4583 3 6.78705 3 6.00049C3 5.17361 3.67219 4.50049 4.5 4.50049H9.57656C10.9125 4.50049 12 5.58752 12 6.92814C12 7.85252 11.4858 8.68455 10.5703 9.14674L5.99062 11.8313C5.48906 12.1031 5.25 12.5953 5.25 13.125V15C5.25 15.8283 5.92078 16.4995 6.75 16.4995C7.57922 16.4995 8.25 15.8283 8.25 15V13.9828L12 11.7797C13.8502 10.8539 15 8.99439 15 6.92814C15 3.93518 12.5672 1.50049 9.57656 1.50049ZM6.75 18.75C5.71453 18.75 4.875 19.5895 4.875 20.625C4.875 21.6605 5.71453 22.4578 6.75 22.4578C7.78547 22.4578 8.625 21.6188 8.625 20.625C8.625 19.6313 7.78594 18.75 6.75 18.75Z" fill="black"/>
</g>
<defs>
<clipPath id="clip0_2662_2085">
<rect width="15" height="24" fill="white"/>
</clipPath>
</defs>
</svg>
