<svg width="24" height="24" viewBox="0 0 24 24" fill="none" xmlns="http://www.w3.org/2000/svg">
<path d="M18.539 14.8463C18.3281 14.8464 18.1226 14.7798 17.9518 14.656C17.781 14.5323 17.6537 14.3577 17.588 14.1573C17.5224 13.9568 17.5218 13.7408 17.5863 13.54C17.6508 13.3392 17.7771 13.1639 17.9472 13.0392C18.7872 12.4263 19.4152 11.5668 19.7438 10.5804C20.0725 9.59392 20.0854 8.52954 19.7809 7.53538C19.4763 6.54122 18.8694 5.66673 18.0446 5.03363C17.2198 4.40052 16.2181 4.04029 15.179 4.00307C14.1399 3.96586 13.1151 4.2535 12.2471 4.82598C11.3791 5.39845 10.7112 6.22728 10.3363 7.1971C9.96138 8.16693 9.89814 9.22951 10.1554 10.237C10.4126 11.2444 10.9775 12.1466 11.7714 12.818C11.9738 12.9894 12.0998 13.2343 12.1217 13.4986C12.1436 13.763 12.0596 14.0252 11.8881 14.2276C11.7166 14.43 11.4718 14.556 11.2074 14.5779C10.9431 14.5998 10.6808 14.5157 10.4784 14.3443C9.36746 13.4042 8.57714 12.1412 8.21743 10.731C7.85771 9.32075 7.9465 7.83349 8.47142 6.47609C8.99635 5.11869 9.93131 3.95867 11.1462 3.1574C12.3612 2.35613 13.7956 1.95347 15.2501 2.00544C16.7045 2.05741 18.1066 2.56143 19.2612 3.44737C20.4158 4.3333 21.2656 5.5571 21.6923 6.9485C22.119 8.3399 22.1014 9.82971 21.642 11.2106C21.1825 12.5916 20.3041 13.795 19.1288 14.6534C18.9578 14.7789 18.7512 14.8464 18.539 14.8463Z" fill="black"/>
<path d="M9.00001 22.0001C7.50759 22 6.05425 21.523 4.85208 20.6386C3.64992 19.7542 2.76186 18.5088 2.3175 17.0841C1.87314 15.6593 1.89574 14.1299 2.382 12.7189C2.86826 11.3079 3.79273 10.0893 5.0205 9.2408C5.2386 9.09038 5.50748 9.03264 5.76811 9.08026C6.02874 9.12787 6.25983 9.27696 6.41065 9.49479C6.56147 9.71262 6.6197 9.98139 6.57256 10.2421C6.52542 10.5028 6.37675 10.7342 6.1592 10.8854C5.30325 11.476 4.65273 12.3188 4.29817 13.2964C3.94361 14.274 3.90265 15.3379 4.181 16.3399C4.45935 17.3419 5.04316 18.2322 5.85116 18.8868C6.65917 19.5415 7.65117 19.928 8.68911 19.9925C9.72704 20.057 10.7593 19.7963 11.6421 19.2467C12.5249 18.6971 13.2145 17.8859 13.6148 16.9261C14.015 15.9663 14.1061 14.9056 13.8753 13.8916C13.6445 12.8776 13.1033 11.9607 12.3271 11.2687C12.1292 11.0921 12.0096 10.844 11.9946 10.5792C11.9796 10.3144 12.0704 10.0544 12.247 9.85655C12.4237 9.65867 12.6717 9.53907 12.9365 9.52406C13.2014 9.50905 13.4613 9.59985 13.6592 9.7765C14.7179 10.7206 15.4647 11.9641 15.8007 13.3422C16.1368 14.7204 16.0462 16.168 15.541 17.4935C15.0358 18.819 14.1397 19.9597 12.9717 20.7645C11.8036 21.5693 10.4185 22.0002 9.00001 22.0001Z" fill="black"/>
</svg>
