<svg width="21" height="24" viewBox="0 0 21 24" fill="none" xmlns="http://www.w3.org/2000/svg">
<path fill-rule="evenodd" clip-rule="evenodd" d="M16.7852 5.375C17.795 3.2168 17.7774 1.43359 16.8047 0L10.7598 10.4902L12.2618 13.1543L16.7852 5.375ZM3.87505 5.375C2.86529 3.2168 2.88286 1.43359 3.85552 0L11.17 12.6934C11.5098 13.1328 11.7208 13.5996 11.7481 14.1035C11.7735 14.5742 11.6387 14.7461 11.5626 15.1562C11.5001 15.5 11.5352 15.8496 11.7637 16.2109L12.0684 16.5449C12.3418 16.8438 12.5762 17.2031 13.0391 17.1445C13.3477 17.1055 13.6075 16.8438 13.8321 16.4238C14.1211 16.1055 14.459 15.8574 14.8458 15.6855C15.2208 15.5195 15.6407 15.4238 16.1114 15.4023C17.586 15.4785 18.8614 16.166 19.8184 17.8262C20.9786 19.7168 20.8458 21.3145 19.9844 22.7441C19.3204 23.6152 18.5196 23.998 17.6075 24C16.2168 24.002 15.0879 23.334 14.2129 22.2949C13.6583 21.6367 13.1973 20.8457 12.7129 19.9648L10.9493 17.7109L10.7422 17.1836L3.87505 5.375ZM10.3731 13.2422C10.7598 13.2422 11.0723 13.5547 11.0723 13.9414C11.0723 14.3281 10.7598 14.6406 10.3731 14.6406C9.98833 14.6406 9.67388 14.3281 9.67388 13.9414C9.67388 13.5547 9.98638 13.2422 10.3731 13.2422ZM14.7188 17.584C15.2168 16.8223 16.0567 16.7422 16.8575 17.0234C17.5001 17.25 18.0547 17.7305 18.5235 18.4531C18.918 19.0625 19.2247 20.0449 19.1465 20.8965C18.9942 22.5469 17.5254 22.8594 16.2442 22.1387C15.6739 21.8184 15.2208 21.3438 14.8926 20.6992C14.6719 20.2637 14.4844 19.748 14.4141 19.2266C14.336 18.6504 14.4004 18.0684 14.7188 17.584ZM9.0938 15.7402C9.0606 15.8945 8.99615 16.0508 8.89654 16.209L8.59185 16.543C8.31841 16.8418 8.08404 17.2012 7.62115 17.1426C7.31255 17.1035 7.05279 16.8418 6.82818 16.4219C6.53911 16.1035 6.20122 15.8555 5.8145 15.6836C5.4395 15.5176 5.01958 15.4219 4.54888 15.4004C3.07427 15.4766 1.79888 16.1641 0.841848 17.8242C-0.318308 19.7148 -0.185496 21.3125 0.675832 22.7422C1.33989 23.6133 2.14068 23.9961 3.05279 23.998C4.44341 24 5.57232 23.332 6.44732 22.293C7.002 21.6348 7.46294 20.8438 7.94732 19.9629L10.0235 17.3105L9.95513 17.1934L9.93365 17.1582L9.0938 15.7402ZM5.94341 17.584C5.44536 16.8223 4.60552 16.7422 3.80474 17.0234C3.16216 17.25 2.60747 17.7305 2.13872 18.4531C1.74419 19.0625 1.43755 20.0449 1.51763 20.8984C1.66997 22.5488 3.13872 22.8613 4.41997 22.1406C4.99029 21.8203 5.44341 21.3457 5.77154 20.7012C5.99224 20.2656 6.17974 19.75 6.25005 19.2285C6.32622 18.6504 6.25982 18.0684 5.94341 17.584Z" fill="black"/>
</svg>
