<svg width="24" height="25" viewBox="0 0 24 25" fill="none" xmlns="http://www.w3.org/2000/svg">
<path fill-rule="evenodd" clip-rule="evenodd" d="M8.65507 0.824895C3.98552 2.17745 0.488704 6.29036 0.0471191 11.2811H5.53318C5.85603 7.59756 6.92412 4.03692 8.65507 0.824895ZM5.53318 13.424H0.0471191C0.488704 18.4148 3.98552 22.5277 8.65507 23.8803C6.9241 20.6682 5.85603 17.1075 5.53318 13.424ZM11.4037 24.338C9.33624 21.0705 8.05652 17.3271 7.68497 13.424H16.3149C15.9433 17.3271 14.6636 21.0705 12.5961 24.338C12.3986 24.3476 12.1998 24.3525 11.9999 24.3525C11.8 24.3525 11.6012 24.3476 11.4037 24.338ZM15.3448 23.8803C20.0144 22.5277 23.5112 18.4148 23.9528 13.424H18.4666C18.1438 17.1075 17.0757 20.6682 15.3448 23.8803ZM18.4666 11.2811H23.9528C23.5112 6.29035 20.0144 2.17741 15.3447 0.824881C17.0757 4.0369 18.1438 7.59754 18.4666 11.2811ZM11.4037 0.367093C11.6012 0.357428 11.8 0.352539 11.9999 0.352539C12.1998 0.352539 12.3986 0.357427 12.5961 0.36709C14.6636 3.63447 15.9433 7.37797 16.3149 11.2811H7.68497C8.05652 7.37797 9.33624 3.63447 11.4037 0.367093Z" fill="black"/>
</svg>
